<svg width="62" height="62" viewBox="0 0 62 62" fill="none" xmlns="http://www.w3.org/2000/svg">
<path fill-rule="evenodd" clip-rule="evenodd" d="M7.75 31C7.75 29.9299 8.61745 29.0625 9.6875 29.0625H52.3125C53.3825 29.0625 54.25 29.9299 54.25 31C54.25 32.0701 53.3825 32.9375 52.3125 32.9375H9.6875C8.61745 32.9375 7.75 32.0701 7.75 31Z" fill="black"/>
<path fill-rule="evenodd" clip-rule="evenodd" d="M28.495 12.1925C29.2517 12.9491 29.2517 14.1759 28.495 14.9325L12.4275 31L28.495 47.0675C29.2517 47.8241 29.2517 49.0509 28.495 49.8075C27.7384 50.5642 26.5116 50.5642 25.755 49.8075L8.31748 32.37C7.56084 31.6134 7.56084 30.3866 8.31748 29.63L25.755 12.1925C26.5116 11.4358 27.7384 11.4358 28.495 12.1925Z" fill="black"/>
</svg>
