<svg width="62" height="62" viewBox="0 0 62 62" fill="none" xmlns="http://www.w3.org/2000/svg">
<path d="M52.3125 29.0625H9.6875C9.17364 29.0625 8.68083 29.2666 8.31748 29.63C7.95413 29.9933 7.75 30.4861 7.75 31C7.75 31.5139 7.95413 32.0067 8.31748 32.37C8.68083 32.7334 9.17364 32.9375 9.6875 32.9375H52.3125C52.8264 32.9375 53.3192 32.7334 53.6825 32.37C54.0459 32.0067 54.25 31.5139 54.25 31C54.25 30.4861 54.0459 29.9933 53.6825 29.63C53.3192 29.2666 52.8264 29.0625 52.3125 29.0625Z" fill="#333333"/>
<path d="M9.6875 17.4375H52.3125C52.8264 17.4375 53.3192 17.2334 53.6825 16.87C54.0459 16.5067 54.25 16.0139 54.25 15.5C54.25 14.9861 54.0459 14.4933 53.6825 14.13C53.3192 13.7666 52.8264 13.5625 52.3125 13.5625H9.6875C9.17364 13.5625 8.68083 13.7666 8.31748 14.13C7.95413 14.4933 7.75 14.9861 7.75 15.5C7.75 16.0139 7.95413 16.5067 8.31748 16.87C8.68083 17.2334 9.17364 17.4375 9.6875 17.4375Z" fill="#333333"/>
<path d="M52.3125 44.5625H9.6875C9.17364 44.5625 8.68083 44.7666 8.31748 45.13C7.95413 45.4933 7.75 45.9861 7.75 46.5C7.75 47.0139 7.95413 47.5067 8.31748 47.87C8.68083 48.2334 9.17364 48.4375 9.6875 48.4375H52.3125C52.8264 48.4375 53.3192 48.2334 53.6825 47.87C54.0459 47.5067 54.25 47.0139 54.25 46.5C54.25 45.9861 54.0459 45.4933 53.6825 45.13C53.3192 44.7666 52.8264 44.5625 52.3125 44.5625Z" fill="#333333"/>
</svg>
