<svg width="62" height="62" viewBox="0 0 62 62" fill="none" xmlns="http://www.w3.org/2000/svg">
<path fill-rule="evenodd" clip-rule="evenodd" d="M28.4166 10.3333C18.4295 10.3333 10.3333 18.4295 10.3333 28.4167C10.3333 38.4038 18.4295 46.5 28.4166 46.5C38.4038 46.5 46.5 38.4038 46.5 28.4167C46.5 18.4295 38.4038 10.3333 28.4166 10.3333ZM5.16663 28.4167C5.16663 15.576 15.576 5.16666 28.4166 5.16666C41.2572 5.16666 51.6666 15.576 51.6666 28.4167C51.6666 41.2573 41.2572 51.6667 28.4166 51.6667C15.576 51.6667 5.16663 41.2573 5.16663 28.4167Z" fill="#A0A7BA"/>
<path fill-rule="evenodd" clip-rule="evenodd" d="M41.1858 41.1858C42.1947 40.177 43.8304 40.177 44.8392 41.1858L56.0767 52.4233C57.0856 53.4322 57.0856 55.0678 56.0767 56.0767C55.0679 57.0855 53.4322 57.0855 52.4233 56.0767L41.1858 44.8392C40.177 43.8303 40.177 42.1947 41.1858 41.1858Z" fill="#A0A7BA"/>
</svg>
