<svg width="639" height="639" viewBox="0 0 639 639" fill="none" xmlns="http://www.w3.org/2000/svg">
<path d="M526.817 134.906C515.456 115.57 499.558 99.7479 479.455 86.904C412.526 43.9249 321.558 28.4483 243.357 40.1292C187.495 48.4745 150.255 86.4439 126.42 135.979C98.3039 194.448 72.7439 252.609 40.6661 309.391C3.8341 374.454 -12.6138 442.188 67.3124 498.42C136.478 547.086 223.228 534.46 302.464 532.926C328.74 532.415 355.207 533.284 381.061 538.37C432.437 548.466 482.33 584.378 532.862 550.844C571.266 525.347 593.887 477.18 604.852 433.549C611.383 407.554 616.52 378.863 614.092 351.258C611.446 321.021 597.478 298.247 583.151 272.495C565.076 240.033 551.008 205.495 541.259 169.642C538.018 157.47 533.161 145.788 526.817 134.906Z" fill="#92E3A9"/>
<g opacity="0.7">
<path d="M526.817 134.906C515.456 115.57 499.558 99.7479 479.455 86.904C412.526 43.9249 321.558 28.4483 243.357 40.1292C187.495 48.4745 150.255 86.4439 126.42 135.979C98.3039 194.448 72.7439 252.609 40.6661 309.391C3.8341 374.454 -12.6138 442.188 67.3124 498.42C136.478 547.086 223.228 534.46 302.464 532.926C328.74 532.415 355.207 533.284 381.061 538.37C432.437 548.467 482.33 584.378 532.862 550.844C571.266 525.347 593.887 477.18 604.852 433.549C611.383 407.554 616.52 378.863 614.092 351.258C611.446 321.021 597.478 298.247 583.151 272.495C565.076 240.033 551.008 205.495 541.259 169.642C538.018 157.47 533.161 145.788 526.817 134.906Z" fill="white"/>
<path d="M192.844 201.236V386.278C192.846 388.479 192.414 390.659 191.572 392.694C190.731 394.728 189.497 396.576 187.941 398.134C186.385 399.691 184.538 400.926 182.504 401.769C180.47 402.612 178.291 403.045 176.089 403.045H42.4361C40.2359 403.044 38.0575 402.609 36.0254 401.765C33.9933 400.922 32.1472 399.686 30.5926 398.129C29.038 396.572 27.8053 394.724 26.9648 392.691C26.1244 390.657 25.6927 388.478 25.6943 386.278V201.236C25.6943 196.795 27.4578 192.535 30.5971 189.394C33.7365 186.252 37.9948 184.485 42.4361 184.482H176.089C180.533 184.482 184.795 186.247 187.937 189.389C191.079 192.531 192.844 196.793 192.844 201.236Z" fill="white"/>
<path d="M192.844 201.236L192.844 211.141H25.6946L25.6943 201.236C25.6943 196.795 27.4578 192.535 30.5971 189.394C33.7365 186.252 37.9948 184.485 42.4361 184.482H176.089C180.533 184.482 184.795 186.247 187.937 189.389C191.079 192.531 192.844 196.793 192.844 201.236Z" fill="white"/>
<path d="M82.5399 222.617H41.4138V229.519H82.5399V222.617Z" fill="white"/>
<path d="M82.5399 284.46H41.4138V291.361H82.5399V284.46Z" fill="white"/>
<path d="M82.5399 340.538H41.4138V347.44H82.5399V340.538Z" fill="white"/>
<path d="M158.21 239.704H41.4138V244.765H158.21V239.704Z" fill="white"/>
<path d="M137.149 249.379H41.4138V254.312H137.149V249.379Z" fill="white"/>
<path d="M149.686 258.9H41.4138V263.833H149.686V258.9Z" fill="white"/>
<path d="M149.686 268.408H41.4138V273.341H149.686V268.408Z" fill="white"/>
<path d="M158.21 295.783H41.4138V300.844H158.21V295.783Z" fill="white"/>
<path d="M137.149 305.457H41.4138V310.39H137.149V305.457Z" fill="white"/>
<path d="M149.686 314.978H41.4138V319.911H149.686V314.978Z" fill="white"/>
<path d="M158.21 357.357H41.4138V362.418H158.21V357.357Z" fill="white"/>
<path d="M137.149 367.044H41.4138V371.977H137.149V367.044Z" fill="white"/>
<path d="M149.686 376.565H41.4138V381.498H149.686V376.565Z" fill="white"/>
</g>
<path d="M551.508 345.993L571.956 541.898" stroke="#263238" stroke-width="2" stroke-miterlimit="10"/>
<path d="M568.659 504.414L559.393 494.624" stroke="#263238" stroke-width="2" stroke-miterlimit="10"/>
<path d="M562.205 497.551C562.188 496.053 561.849 494.576 561.212 493.22C560.575 491.864 559.654 490.661 558.512 489.691C556.134 487.57 543.61 482.304 542.421 486.714C541.131 491.506 553.949 500.976 562.205 497.551Z" fill="#92E3A9" stroke="#263238" stroke-miterlimit="10"/>
<path d="M562.205 497.551L550.281 490.126" stroke="#263238" stroke-width="0.5" stroke-miterlimit="10"/>
<path d="M570.985 526.689L561.707 516.9" stroke="#263238" stroke-width="2" stroke-miterlimit="10"/>
<path d="M564.531 519.827C564.513 518.329 564.174 516.852 563.537 515.496C562.9 514.14 561.979 512.937 560.838 511.967C558.461 509.845 545.936 504.58 544.748 508.989C543.457 513.756 556.275 523.201 564.531 519.827Z" fill="#92E3A9" stroke="#263238" stroke-miterlimit="10"/>
<path d="M564.531 519.827L552.607 512.401" stroke="#263238" stroke-width="0.5" stroke-miterlimit="10"/>
<path d="M562.984 450.048L553.719 440.258" stroke="#263238" stroke-width="2" stroke-miterlimit="10"/>
<path d="M556.531 443.185C556.513 441.687 556.175 440.21 555.538 438.854C554.9 437.498 553.979 436.295 552.837 435.325C550.46 433.204 537.936 427.938 536.747 432.347C535.482 437.14 548.262 446.559 556.531 443.185Z" fill="#92E3A9" stroke="#263238" stroke-miterlimit="10"/>
<path d="M556.531 443.185L544.607 435.76" stroke="#263238" stroke-width="0.5" stroke-miterlimit="10"/>
<path d="M565.311 472.323L556.045 462.534" stroke="#263238" stroke-width="2" stroke-miterlimit="10"/>
<path d="M558.857 465.46C558.839 463.962 558.5 462.486 557.863 461.13C557.225 459.774 556.305 458.571 555.163 457.601C552.786 455.479 540.262 450.214 539.073 454.623C537.783 459.415 550.601 468.834 558.857 465.46Z" fill="#92E3A9" stroke="#263238" stroke-miterlimit="10"/>
<path d="M558.857 465.46L546.933 458.035" stroke="#263238" stroke-width="0.5" stroke-miterlimit="10"/>
<path d="M559.202 413.855L549.936 404.065" stroke="#263238" stroke-width="2" stroke-miterlimit="10"/>
<path d="M552.748 406.992C552.731 405.495 552.394 404.019 551.759 402.663C551.125 401.307 550.207 400.103 549.067 399.132C546.69 397.011 534.204 391.745 532.926 396.18C531.648 400.947 544.505 410.366 552.748 406.992Z" fill="#92E3A9" stroke="#263238" stroke-miterlimit="10"/>
<path d="M552.748 406.992L540.837 399.567" stroke="#263238" stroke-width="0.5" stroke-miterlimit="10"/>
<path d="M555.406 377.508L546.141 367.719" stroke="#263238" stroke-width="2" stroke-miterlimit="10"/>
<path d="M548.965 370.62C548.944 369.122 548.604 367.647 547.967 366.291C547.33 364.936 546.411 363.732 545.272 362.76C542.894 360.639 530.37 355.361 529.182 359.77C527.891 364.601 540.709 374.019 548.965 370.62Z" fill="#92E3A9" stroke="#263238" stroke-miterlimit="10"/>
<path d="M548.965 370.646L537.041 363.22" stroke="#263238" stroke-width="0.5" stroke-miterlimit="10"/>
<path d="M567.1 491.225L574.142 479.736" stroke="#263238" stroke-width="2" stroke-miterlimit="10"/>
<path d="M571.994 483.186C571.704 481.718 571.732 480.204 572.076 478.746C572.42 477.289 573.072 475.923 573.988 474.739C575.867 472.183 587.036 464.425 589.107 468.489C591.356 472.924 580.762 484.784 571.994 483.186Z" fill="#92E3A9" stroke="#263238" stroke-miterlimit="10"/>
<path d="M571.995 483.186L582.73 472.924" stroke="#263238" stroke-width="0.5" stroke-miterlimit="10"/>
<path d="M560.978 432.603L568.033 421.101" stroke="#263238" stroke-width="2" stroke-miterlimit="10"/>
<path d="M565.873 424.552C565.582 423.083 565.61 421.569 565.954 420.112C566.298 418.655 566.95 417.288 567.867 416.104C569.758 413.548 580.915 405.791 582.985 409.867C585.247 414.289 574.653 426.149 565.873 424.552Z" fill="#92E3A9" stroke="#263238" stroke-miterlimit="10"/>
<path d="M565.873 424.552L576.608 414.302" stroke="#263238" stroke-width="0.5" stroke-miterlimit="10"/>
<path d="M558.294 406.839L565.336 395.337" stroke="#263238" stroke-width="2" stroke-miterlimit="10"/>
<path d="M563.189 398.736C562.899 397.268 562.925 395.755 563.267 394.298C563.608 392.841 564.257 391.474 565.17 390.288C567.061 387.732 578.231 379.975 580.302 384.052C582.551 388.512 571.956 400.385 563.189 398.736Z" fill="#92E3A9" stroke="#263238" stroke-miterlimit="10"/>
<path d="M563.189 398.787L573.924 388.538" stroke="#263238" stroke-width="0.5" stroke-miterlimit="10"/>
<path d="M554.345 369.061L561.4 357.572" stroke="#263238" stroke-width="2" stroke-miterlimit="10"/>
<path d="M559.24 361.022C558.95 359.551 558.978 358.036 559.322 356.577C559.666 355.117 560.318 353.749 561.234 352.562C563.125 350.006 574.282 342.261 576.353 346.325C578.615 350.747 568.02 362.62 559.24 361.022Z" fill="#92E3A9" stroke="#263238" stroke-miterlimit="10"/>
<path d="M559.24 361.022L569.975 350.76" stroke="#263238" stroke-width="0.5" stroke-miterlimit="10"/>
<path d="M551.329 344.907C551.039 343.438 551.066 341.924 551.41 340.467C551.754 339.01 552.406 337.643 553.323 336.459C555.214 333.903 566.371 326.146 568.442 330.223C570.704 334.644 560.109 346.504 551.329 344.907Z" fill="#92E3A9" stroke="#263238" stroke-miterlimit="10"/>
<path d="M551.329 344.907L562.065 334.657" stroke="#263238" stroke-width="0.5" stroke-miterlimit="10"/>
<path d="M551.956 345.354C550.465 345.488 548.963 345.302 547.55 344.808C546.137 344.314 544.846 343.524 543.764 342.491C541.399 340.344 534.818 328.433 539.137 326.797C543.776 325.021 554.46 336.791 551.956 345.354Z" fill="#92E3A9" stroke="#263238" stroke-miterlimit="10"/>
<path d="M551.955 345.354L542.882 333.609" stroke="#263238" stroke-width="0.5" stroke-miterlimit="10"/>
<path d="M605.427 372.972L585.094 568.889" stroke="#263238" stroke-width="2" stroke-miterlimit="10"/>
<path d="M589.593 531.52L582.538 520.044" stroke="#263238" stroke-width="2" stroke-miterlimit="10"/>
<path d="M584.698 523.482C584.997 522.017 584.98 520.506 584.647 519.049C584.314 517.592 583.674 516.223 582.768 515.034C580.877 512.478 569.707 504.733 567.637 508.81C565.323 513.232 575.918 525.092 584.698 523.482Z" fill="#92E3A9" stroke="#263238" stroke-miterlimit="10"/>
<path d="M584.698 523.482L574.563 513.769" stroke="#263238" stroke-width="0.5" stroke-miterlimit="10"/>
<path d="M595.241 477.154L588.187 465.665" stroke="#263238" stroke-width="2" stroke-miterlimit="10"/>
<path d="M590.334 469.115C590.624 467.647 590.597 466.133 590.253 464.676C589.909 463.218 589.257 461.852 588.34 460.668C586.449 458.112 575.279 450.367 573.209 454.431C570.959 458.866 581.567 470.713 590.334 469.115Z" fill="#92E3A9" stroke="#263238" stroke-miterlimit="10"/>
<path d="M590.334 469.115L580.199 459.39" stroke="#263238" stroke-width="0.5" stroke-miterlimit="10"/>
<path d="M592.928 499.442L585.874 487.953" stroke="#263238" stroke-width="2" stroke-miterlimit="10"/>
<path d="M588.021 491.404C588.311 489.933 588.284 488.417 587.94 486.958C587.596 485.498 586.944 484.13 586.027 482.943C584.136 480.387 572.979 472.643 570.908 476.72C568.71 481.141 579.254 493.001 588.021 491.404Z" fill="#92E3A9" stroke="#263238" stroke-miterlimit="10"/>
<path d="M588.021 491.404L577.886 481.678" stroke="#263238" stroke-width="0.5" stroke-miterlimit="10"/>
<path d="M598.999 440.961L591.944 429.472" stroke="#263238" stroke-width="2" stroke-miterlimit="10"/>
<path d="M594.091 432.923C594.382 431.454 594.354 429.94 594.01 428.483C593.666 427.025 593.014 425.659 592.097 424.475C590.206 421.919 579.036 414.174 576.966 418.238C574.717 422.673 585.324 434.52 594.091 432.923Z" fill="#92E3A9" stroke="#263238" stroke-miterlimit="10"/>
<path d="M594.091 432.923L583.957 423.197" stroke="#263238" stroke-width="0.5" stroke-miterlimit="10"/>
<path d="M602.769 404.615L595.714 393.126" stroke="#263238" stroke-width="2" stroke-miterlimit="10"/>
<path d="M597.861 396.576C598.152 395.105 598.124 393.589 597.78 392.13C597.437 390.671 596.784 389.302 595.867 388.116C593.976 385.56 582.806 377.815 580.736 381.892C578.487 386.314 589.158 398.174 597.861 396.576Z" fill="#92E3A9" stroke="#263238" stroke-miterlimit="10"/>
<path d="M597.861 396.576L587.727 386.851" stroke="#263238" stroke-width="0.5" stroke-miterlimit="10"/>
<path d="M590.781 518.306L600.047 508.516" stroke="#263238" stroke-width="2" stroke-miterlimit="10"/>
<path d="M597.235 511.443C597.244 509.937 597.578 508.451 598.213 507.086C598.848 505.721 599.77 504.509 600.916 503.532C603.293 501.398 615.817 496.132 617.006 500.541C618.297 505.385 605.491 514.817 597.235 511.443Z" fill="#92E3A9" stroke="#263238" stroke-miterlimit="10"/>
<path d="M597.235 511.443L609.849 503.621" stroke="#263238" stroke-width="0.5" stroke-miterlimit="10"/>
<path d="M596.865 459.671L606.13 449.882" stroke="#263238" stroke-width="2" stroke-miterlimit="10"/>
<path d="M603.318 452.808C603.335 451.311 603.672 449.835 604.307 448.479C604.942 447.124 605.86 445.92 606.999 444.949C609.376 442.827 621.9 437.549 623.089 441.958C624.38 446.751 611.574 456.246 603.318 452.808Z" fill="#92E3A9" stroke="#263238" stroke-miterlimit="10"/>
<path d="M603.318 452.808L615.932 444.987" stroke="#263238" stroke-width="0.5" stroke-miterlimit="10"/>
<path d="M599.548 433.907L608.801 424.104" stroke="#263238" stroke-width="2" stroke-miterlimit="10"/>
<path d="M605.989 427.044C606.006 425.547 606.343 424.071 606.978 422.715C607.613 421.359 608.531 420.155 609.67 419.184C612.047 417.05 624.571 411.784 625.76 416.193C627.051 420.986 614.245 430.418 605.989 427.044Z" fill="#92E3A9" stroke="#263238" stroke-miterlimit="10"/>
<path d="M605.989 427.044L618.603 419.222" stroke="#263238" stroke-width="0.5" stroke-miterlimit="10"/>
<path d="M603.459 396.129L612.724 386.339" stroke="#263238" stroke-width="2" stroke-miterlimit="10"/>
<path d="M609.913 389.266C609.93 387.769 610.268 386.293 610.902 384.938C611.537 383.582 612.455 382.378 613.593 381.406C615.971 379.285 628.495 374.007 629.684 378.416C630.974 383.208 618.169 392.64 609.913 389.266Z" fill="#92E3A9" stroke="#263238" stroke-miterlimit="10"/>
<path d="M609.913 389.266L622.527 381.445" stroke="#263238" stroke-width="0.5" stroke-miterlimit="10"/>
<path d="M605.491 371.898C605.508 370.401 605.846 368.925 606.481 367.57C607.115 366.214 608.033 365.01 609.172 364.038C611.549 361.917 624.06 356.639 625.262 361.048C626.552 365.815 613.747 375.246 605.491 371.898Z" fill="#92E3A9" stroke="#263238" stroke-miterlimit="10"/>
<path d="M605.491 371.873L618.105 364.051" stroke="#263238" stroke-width="0.5" stroke-miterlimit="10"/>
<path d="M606.002 372.435C604.513 372.263 603.079 371.774 601.796 371C600.513 370.226 599.41 369.186 598.564 367.949C596.698 365.393 592.775 352.357 597.286 351.642C602.181 350.849 610.219 364.588 606.002 372.435Z" fill="#92E3A9" stroke="#263238" stroke-miterlimit="10"/>
<path d="M606.002 372.435L599.535 359.067" stroke="#263238" stroke-width="0.5" stroke-miterlimit="10"/>
<path d="M582.129 293.199V540.952" stroke="#263238" stroke-width="2" stroke-miterlimit="10"/>
<path d="M582.333 503.698L574.129 493.001" stroke="#263238" stroke-width="2" stroke-miterlimit="10"/>
<path d="M576.621 496.209C576.759 494.717 576.576 493.213 576.085 491.798C575.593 490.383 574.804 489.089 573.771 488.004C571.624 485.64 559.713 479.058 558.077 483.365C556.301 488.004 568.071 498.701 576.621 496.209Z" fill="#92E3A9" stroke="#263238" stroke-miterlimit="10"/>
<path d="M576.621 496.209L565.541 487.583" stroke="#263238" stroke-width="0.5" stroke-miterlimit="10"/>
<path d="M582.333 457.141L574.129 446.444" stroke="#263238" stroke-width="2" stroke-miterlimit="10"/>
<path d="M576.621 449.652C576.759 448.16 576.576 446.656 576.085 445.24C575.593 443.825 574.804 442.532 573.771 441.447C571.624 439.082 559.713 432.501 558.077 436.808C556.301 441.447 568.071 452.144 576.621 449.652Z" fill="#92E3A9" stroke="#263238" stroke-miterlimit="10"/>
<path d="M576.621 449.652L565.541 441.025" stroke="#263238" stroke-width="0.5" stroke-miterlimit="10"/>
<path d="M582.333 402.481L574.129 391.784" stroke="#263238" stroke-width="2" stroke-miterlimit="10"/>
<path d="M576.621 394.992C576.759 393.5 576.576 391.996 576.085 390.58C575.593 389.165 574.804 387.872 573.771 386.787C571.624 384.422 559.713 377.841 558.077 382.148C556.301 386.787 568.071 397.458 576.621 394.992Z" fill="#92E3A9" stroke="#263238" stroke-miterlimit="10"/>
<path d="M576.621 394.991L565.541 386.365" stroke="#263238" stroke-width="0.5" stroke-miterlimit="10"/>
<path d="M582.333 366.083L574.129 355.386" stroke="#263238" stroke-width="2" stroke-miterlimit="10"/>
<path d="M576.621 358.594C576.759 357.104 576.576 355.602 576.084 354.189C575.593 352.776 574.804 351.485 573.771 350.402C571.624 348.038 559.713 341.456 558.077 345.763C556.301 350.402 568.071 361.099 576.621 358.594Z" fill="#92E3A9" stroke="#263238" stroke-miterlimit="10"/>
<path d="M576.621 358.594L565.541 349.98" stroke="#263238" stroke-width="0.5" stroke-miterlimit="10"/>
<path d="M582.333 329.545L574.129 318.848" stroke="#263238" stroke-width="2" stroke-miterlimit="10"/>
<path d="M576.621 322.056C576.759 320.564 576.576 319.06 576.085 317.645C575.593 316.23 574.804 314.936 573.771 313.851C571.624 311.487 559.713 304.905 558.077 309.212C556.301 313.851 568.071 324.612 576.621 322.056Z" fill="#92E3A9" stroke="#263238" stroke-miterlimit="10"/>
<path d="M576.621 322.056L565.541 313.43" stroke="#263238" stroke-width="0.5" stroke-miterlimit="10"/>
<path d="M582.155 517.91L590.347 507.213" stroke="#263238" stroke-width="2" stroke-miterlimit="10"/>
<path d="M587.88 510.42C587.742 508.929 587.925 507.425 588.416 506.009C588.908 504.594 589.697 503.301 590.73 502.216C592.877 499.864 604.788 493.27 606.424 497.589C608.187 502.254 596.417 512.925 587.88 510.42Z" fill="#92E3A9" stroke="#263238" stroke-miterlimit="10"/>
<path d="M587.854 510.42L599.599 501.334" stroke="#263238" stroke-width="0.5" stroke-miterlimit="10"/>
<path d="M582.155 443.862L590.347 433.165" stroke="#263238" stroke-width="2" stroke-miterlimit="10"/>
<path d="M587.88 436.373C587.742 434.881 587.925 433.377 588.416 431.962C588.908 430.547 589.697 429.253 590.73 428.168C592.877 425.817 604.788 419.222 606.424 423.542C608.187 428.13 596.417 438.878 587.88 436.373Z" fill="#92E3A9" stroke="#263238" stroke-miterlimit="10"/>
<path d="M587.854 436.373L599.599 427.286" stroke="#263238" stroke-width="0.5" stroke-miterlimit="10"/>
<path d="M582.155 407.324L590.347 396.615" stroke="#263238" stroke-width="2" stroke-miterlimit="10"/>
<path d="M587.88 399.835C587.742 398.343 587.925 396.839 588.416 395.424C588.908 394.009 589.697 392.715 590.73 391.63C592.877 389.266 604.788 382.684 606.424 386.991C608.187 391.63 596.417 402.327 587.88 399.835Z" fill="#92E3A9" stroke="#263238" stroke-miterlimit="10"/>
<path d="M587.854 399.835L599.599 390.736" stroke="#263238" stroke-width="0.5" stroke-miterlimit="10"/>
<path d="M582.155 359.016L590.347 348.319" stroke="#263238" stroke-width="2" stroke-miterlimit="10"/>
<path d="M587.88 351.527C587.742 350.035 587.925 348.531 588.416 347.116C588.908 345.7 589.697 344.407 590.73 343.322C592.877 340.958 604.788 334.376 606.424 338.683C608.187 343.322 596.417 354.006 587.88 351.527Z" fill="#92E3A9" stroke="#263238" stroke-miterlimit="10"/>
<path d="M587.854 351.527L599.599 342.44" stroke="#263238" stroke-width="0.5" stroke-miterlimit="10"/>
<path d="M582.155 321.034L590.347 310.337" stroke="#263238" stroke-width="2" stroke-miterlimit="10"/>
<path d="M587.88 313.545C587.742 312.053 587.925 310.549 588.416 309.133C588.908 307.718 589.697 306.425 590.73 305.34C592.877 302.988 604.788 296.394 606.424 300.713C608.187 305.34 596.417 316.037 587.88 313.545Z" fill="#92E3A9" stroke="#263238" stroke-miterlimit="10"/>
<path d="M587.854 313.545L599.599 304.458" stroke="#263238" stroke-width="0.5" stroke-miterlimit="10"/>
<path d="M581.656 296.7C581.518 295.209 581.701 293.705 582.192 292.289C582.684 290.874 583.473 289.581 584.506 288.496C586.653 286.144 598.564 279.55 600.2 283.869C601.938 288.496 590.219 299.205 581.656 296.7Z" fill="#92E3A9" stroke="#263238" stroke-miterlimit="10"/>
<path d="M581.656 296.7L593.401 287.614" stroke="#263238" stroke-width="0.5" stroke-miterlimit="10"/>
<path d="M582.231 297.212C580.733 297.19 579.256 296.849 577.9 296.209C576.545 295.57 575.341 294.648 574.372 293.506C572.25 291.128 566.998 278.604 571.407 277.416C576.199 276.138 585.605 288.956 582.231 297.212Z" fill="#92E3A9" stroke="#263238" stroke-miterlimit="10"/>
<path d="M582.231 297.212L574.423 284.585" stroke="#263238" stroke-width="0.5" stroke-miterlimit="10"/>
<path d="M592.327 605.197H566.09L562.806 538.933H595.599L592.327 605.197Z" fill="#263238" stroke="#263238" stroke-miterlimit="10"/>
<g opacity="0.3">
<path d="M35.2474 605.925H34.7745C34.3043 605.864 33.8508 605.71 33.4401 605.473C33.0293 605.236 32.6694 604.921 32.3809 604.544C32.0924 604.168 31.881 603.738 31.7588 603.28C31.6367 602.822 31.6062 602.344 31.669 601.874L48.283 476.196C48.4084 475.247 48.9057 474.386 49.6654 473.804C50.4252 473.221 51.3852 472.965 52.3343 473.09C53.2833 473.215 54.1437 473.713 54.7261 474.473C55.3085 475.232 55.5652 476.192 55.4398 477.141L38.8258 602.82C38.7053 603.683 38.2765 604.472 37.6187 605.043C36.9608 605.614 36.1184 605.928 35.2474 605.925Z" fill="white" stroke="black" stroke-linecap="round" stroke-linejoin="round"/>
<path d="M118.65 605.925H118.177C117.701 605.867 117.241 605.715 116.825 605.478C116.408 605.241 116.042 604.924 115.749 604.545C115.455 604.166 115.24 603.733 115.115 603.27C114.99 602.807 114.957 602.324 115.02 601.849L131.634 476.17C131.76 475.221 132.257 474.361 133.017 473.778C133.776 473.196 134.736 472.939 135.685 473.065C136.634 473.19 137.495 473.687 138.077 474.447C138.66 475.207 138.916 476.167 138.791 477.116L122.177 602.794C122.063 603.653 121.644 604.442 120.997 605.017C120.349 605.592 119.516 605.915 118.65 605.925Z" fill="white" stroke="black" stroke-linecap="round" stroke-linejoin="round"/>
<path d="M116.298 315.666H25.2278L43.7588 444.923C44.5517 450.692 47.0074 456.105 50.8261 460.502L55.4525 465.844L146.523 463.428C136.918 443.684 130.595 422.507 127.8 400.73L116.298 315.666Z" fill="white" stroke="black" stroke-linecap="round" stroke-linejoin="round"/>
<path d="M222.602 605.925H223.088C224.034 605.795 224.892 605.296 225.473 604.538C226.054 603.779 226.313 602.822 226.193 601.874L209.579 476.196C209.435 475.261 208.93 474.421 208.174 473.854C207.417 473.287 206.469 473.039 205.532 473.163C204.595 473.286 203.743 473.772 203.16 474.516C202.576 475.259 202.307 476.202 202.41 477.141L219.024 602.82C219.141 603.684 219.57 604.475 220.228 605.046C220.886 605.618 221.73 605.93 222.602 605.925Z" fill="white" stroke="black" stroke-linecap="round" stroke-linejoin="round"/>
<path d="M139.2 605.925H139.686C140.632 605.795 141.489 605.296 142.071 604.538C142.652 603.779 142.911 602.822 142.791 601.874L126.177 476.196C126.033 475.261 125.528 474.421 124.772 473.854C124.015 473.287 123.067 473.039 122.13 473.163C121.193 473.286 120.341 473.772 119.758 474.516C119.174 475.259 118.905 476.202 119.008 477.141L135.622 602.82C135.739 603.684 136.167 604.475 136.826 605.046C137.484 605.618 138.328 605.93 139.2 605.925Z" fill="white" stroke="black" stroke-linecap="round" stroke-linejoin="round"/>
<path d="M215.752 471.927H47.9634V480.068H215.752V471.927Z" fill="white" stroke="black" stroke-linecap="round" stroke-linejoin="round"/>
<path d="M215.765 471.927H126.701V480.068H215.765V471.927Z" fill="white" stroke="black" stroke-linecap="round" stroke-linejoin="round"/>
<path d="M47.9634 471.927C47.9634 471.927 54.6601 463.505 60.9479 462.981C67.2356 462.457 200.327 462.981 204.902 462.981C209.477 462.981 215.752 471.927 215.752 471.927H47.9634Z" fill="white" stroke="black" stroke-linecap="round" stroke-linejoin="round"/>
</g>
<path d="M405.305 114.023V412.474C405.308 416.025 404.676 419.541 403.447 422.822C402.217 426.103 400.414 429.084 398.139 431.596C395.865 434.108 393.165 436.1 390.193 437.459C387.22 438.818 384.034 439.518 380.817 439.518H185.47C182.254 439.515 179.07 438.814 176.1 437.453C173.13 436.093 170.432 434.1 168.159 431.589C165.887 429.077 164.085 426.097 162.857 422.817C161.629 419.538 160.998 416.023 161 412.474V114.023C161 106.86 163.577 99.9895 168.166 94.9222C172.754 89.855 178.978 87.0055 185.47 87H380.817C387.312 87 393.54 89.8471 398.133 94.9149C402.725 99.9828 405.305 106.856 405.305 114.023Z" fill="white" stroke="#263238" stroke-width="1.10311" stroke-linecap="round" stroke-linejoin="round"/>
<path d="M405.306 114.023V129.998H161V114.023C161 106.86 163.578 99.9895 168.166 94.9222C172.755 89.855 178.978 87.0055 185.47 87H380.817C387.312 87 393.541 89.8471 398.133 94.9149C402.726 99.9828 405.306 106.856 405.306 114.023Z" fill="#92E3A9" stroke="#263238" stroke-width="1.10311" stroke-miterlimit="10"/>
<path d="M244.085 148.508H183.976V159.639H244.085V148.508Z" fill="#92E3A9"/>
<path d="M244.085 248.253H183.976V259.384H244.085V248.253Z" fill="#92E3A9"/>
<path d="M244.085 338.702H183.976V349.833H244.085V338.702Z" fill="#92E3A9"/>
<path d="M354.685 176.068H183.976V184.23H354.685V176.068Z" fill="#263238"/>
<path d="M323.901 191.671H183.976V199.628H323.901V191.671Z" fill="#263238"/>
<path d="M342.226 207.028H183.976V214.984H342.226V207.028Z" fill="#263238"/>
<path d="M342.226 222.364H183.976V230.32H342.226V222.364Z" fill="#263238"/>
<path d="M354.685 266.516H183.976V274.679H354.685V266.516Z" fill="#263238"/>
<path d="M323.901 282.12H183.976V290.076H323.901V282.12Z" fill="#263238"/>
<path d="M342.226 297.476H183.976V305.433H342.226V297.476Z" fill="#263238"/>
<path d="M354.685 365.828H183.976V373.991H354.685V365.828Z" fill="#263238"/>
<path d="M323.901 381.452H183.976V389.409H323.901V381.452Z" fill="#263238"/>
<path d="M342.226 396.809H183.976V404.765H342.226V396.809Z" fill="#263238"/>
<path d="M503.711 558.269L511.724 572.761L527.456 558.575L518.817 545.629L503.711 558.269Z" fill="white" stroke="#263238" stroke-linecap="round" stroke-linejoin="round"/>
<path d="M438.034 547.648L433.715 565.847H451.3L456.54 548.275L438.034 547.648Z" fill="white" stroke="#263238" stroke-linecap="round" stroke-linejoin="round"/>
<path d="M455.3 559.981L430.942 560.301L429.408 572.633C429.408 572.633 418.609 582.5 414.915 585.273C411.222 588.046 403.81 590.513 403.81 590.513C403.81 590.513 396.717 592.059 397.33 594.526C397.944 596.992 395.797 601.925 397.956 602.539C400.116 603.152 411.516 605.925 417.995 605.925C423.456 605.741 428.685 603.673 432.795 600.072C434.591 598.433 436.552 596.986 438.648 595.752V604.072H452.22C452.22 604.072 454.38 590.819 454.38 585.273C454.38 579.726 452.22 573.554 452.22 572.633C452.22 571.713 455.3 559.981 455.3 559.981Z" fill="#263238" stroke="#263238" stroke-linecap="round" stroke-linejoin="round"/>
<path d="M524.811 549.54L504.158 563.981C504.158 563.981 510.344 570.103 509.73 574.423C509.117 578.742 500.324 596.149 500.324 596.149C500.324 596.149 493.538 600.775 492.925 602.615C492.311 604.456 490.765 605.389 495.698 606.015C500.631 606.641 512.516 605.427 518.318 603.612C522.025 602.449 527.264 600.277 527.597 597.81C527.929 595.343 527.763 589.056 529.616 586.308C531.089 584.304 532.855 582.533 534.856 581.055L540.095 590.308L546.575 586.001C546.575 586.001 541.642 572.122 539.175 565.643C536.709 559.163 528.76 558.384 528.76 558.384L524.811 549.54Z" fill="#263238" stroke="#263238" stroke-linecap="round" stroke-linejoin="round"/>
<path d="M356.779 262.629L381.061 305.225L398.314 310.554L375.31 262.207L356.779 262.629Z" fill="#263238" stroke="#263238" stroke-linecap="round" stroke-linejoin="round"/>
<path d="M366.083 291.243C366.083 291.243 374.467 309.135 376.831 311.691C379.195 314.247 398.953 329.724 406.033 333.162C413.114 336.6 421.714 340.472 426.481 340.472C431.248 340.472 432.871 339.194 432.871 339.194C432.871 339.194 437.383 278.195 437.804 276.904C438.226 275.613 421.919 266.604 421.919 266.604C420.498 273.767 419.643 281.032 419.363 288.33C419.146 298.643 416.999 315.602 416.999 315.602C416.999 315.602 406.046 314.324 395.094 312.816C384.141 311.308 383.502 307.704 383.285 304.867C383.068 302.03 384.78 295.844 384.78 295.844C384.78 295.844 387.579 291.767 388.014 289.454C388.448 287.141 386.288 287.307 386.288 287.307C386.288 287.307 388.014 282.796 386.94 281.505C386.724 281.149 386.383 280.886 385.984 280.768C385.584 280.65 385.155 280.685 384.78 280.866C384.836 279.456 384.537 278.054 383.911 276.789C383.387 276.01 383.042 275.984 381.572 276.137C381.572 276.137 380.921 273.121 379.016 274.412C377.112 275.703 366.991 285.377 366.121 287.524C365.632 288.713 365.618 290.045 366.083 291.243Z" fill="white" stroke="#263238" stroke-linecap="round" stroke-linejoin="round"/>
<path d="M381.56 276.048C381.56 276.048 371.182 286.937 368.102 292.215" stroke="#263238" stroke-linecap="round" stroke-linejoin="round"/>
<path d="M384.767 280.725C384.767 280.725 379.77 286.885 376.473 291.831C373.176 296.777 373.278 298.771 373.278 298.771" stroke="#263238" stroke-linecap="round" stroke-linejoin="round"/>
<path d="M386.276 287.167C386.276 287.167 379.438 295.141 378.454 299.205C377.47 303.269 378.339 304.931 378.339 304.931" stroke="#263238" stroke-linecap="round" stroke-linejoin="round"/>
<path d="M451.773 234.832C451.773 234.832 434.84 237.069 428.769 243.139C422.699 249.21 416.948 264.226 416.948 264.226L430.047 275.089C427.181 282.296 426.514 290.189 428.13 297.774C431.006 309.595 431.006 338.35 431.006 347.296C431.006 356.242 430.686 384.039 430.686 384.039C430.686 384.039 431.325 408.96 433.562 428.769C435.798 448.578 441.869 461.038 441.869 461.038C441.869 461.038 440.591 481.167 441.549 492.349C442.508 503.532 434.84 548.901 434.84 548.901C434.84 548.901 448.259 550.818 453.69 550.818C456.157 550.942 458.63 550.727 461.039 550.179L470.624 506.407C470.624 506.407 500.018 560.723 501.296 562C502.574 563.279 517.59 554.013 519.507 550.499C520.576 548.753 521.232 546.786 521.424 544.747L486.918 460.399C486.918 460.399 502.254 416.308 508.005 404.487C513.756 392.665 515.034 372.856 513.437 361.354C512.558 354.732 511.061 348.207 508.964 341.865C508.964 341.865 500.976 311.193 500.976 305.122C500.976 299.052 516.632 266.782 517.271 256.239C517.91 245.695 507.686 233.554 502.574 231.637C497.462 229.72 474.138 211.189 468.707 215.343C463.275 219.496 463.595 226.525 460.719 230.04C457.844 233.554 451.773 234.832 451.773 234.832Z" fill="#92E3A9" stroke="#263238" stroke-linecap="round" stroke-linejoin="round"/>
<path d="M479.109 356.83C479.109 356.83 488.72 360.191 503.622 360.191L503.136 365.482C503.136 365.482 487.8 367.399 476.221 359.706" stroke="#263238" stroke-linecap="round" stroke-linejoin="round"/>
<path d="M436.82 354.428L431.53 362.109" stroke="#263238" stroke-linecap="round" stroke-linejoin="round"/>
<path d="M439.696 357.789L431.53 366.927" stroke="#263238" stroke-linecap="round" stroke-linejoin="round"/>
<path d="M456.949 385.164C457.844 381.739 458.444 379.4 458.444 378.94" stroke="#263238" stroke-linecap="round" stroke-linejoin="round"/>
<path d="M442.827 455.926C442.827 455.926 447.62 421.74 450.815 408.64C452.399 402.123 454.304 395.055 455.799 389.47" stroke="#263238" stroke-linecap="round" stroke-linejoin="round"/>
<path d="M472.681 498.573L471.902 503.851" stroke="#263238" stroke-linecap="round" stroke-linejoin="round"/>
<path d="M485.321 463.914L474.777 484.362L473.448 493.333" stroke="#263238" stroke-linecap="round" stroke-linejoin="round"/>
<path d="M484.362 298.413C484.362 298.413 484.682 266.143 491.391 251.127C495.557 241.798 498.982 234.807 500.989 230.858C493.794 226.871 473.704 211.522 468.707 215.343C463.275 219.496 463.595 226.525 460.719 230.04C457.844 233.554 451.773 234.832 451.773 234.832C451.773 234.832 450.994 234.935 449.728 235.152C448.335 238.692 435.095 272.278 433.881 279.243C433.114 283.565 432.793 287.955 432.923 292.342C432.923 292.342 447.3 298.413 459.122 299.371C467.546 299.853 475.998 299.532 484.362 298.413Z" fill="white" stroke="#263238" stroke-linecap="round" stroke-linejoin="round"/>
<path d="M505.896 233.721C499.778 242.21 495.69 251.991 493.947 262.309C492.007 274.68 490.939 287.171 490.752 299.691C490.752 299.691 495.864 300.79 501.564 302.055C504.388 291.908 516.708 265.568 517.27 256.239C517.794 247.676 511.2 238.066 505.896 233.721Z" fill="white" stroke="#263238" stroke-linecap="round" stroke-linejoin="round"/>
<path d="M492.35 238.347C492.822 233.299 493.206 229.235 493.167 225.925C484.285 220.135 472.387 212.531 468.707 215.343C463.275 219.496 463.595 226.525 460.719 230.04C458.022 233.337 452.501 234.666 451.837 234.82C451.172 242.858 450.252 267.37 463.595 268.699C479.57 270.297 491.072 252.085 492.35 238.347Z" fill="white" stroke="#263238" stroke-linecap="round" stroke-linejoin="round"/>
<path d="M423.018 171.252C423.018 171.252 418.225 181.476 421.101 185.949C423.976 190.422 431.644 190.422 431.644 190.422C431.644 190.422 442.188 212.468 445.063 221.094C447.332 228.129 447.554 235.664 445.702 242.82C444.424 246.974 434.839 248.571 434.839 248.571C434.839 248.571 432.922 251.127 440.91 251.766C448.897 252.405 450.495 248.252 450.495 248.252C449.449 250.152 448.874 252.275 448.819 254.443C448.763 256.611 449.228 258.761 450.175 260.712C453.37 267.741 458.482 265.824 458.482 265.824C458.482 265.824 453.051 256.239 460.399 249.53C467.748 242.82 462.636 226.526 462.636 226.526C462.636 226.526 446.98 190.103 440.91 181.796C434.839 173.489 431.644 169.655 428.449 169.016C425.254 168.377 423.018 171.252 423.018 171.252Z" fill="#263238" stroke="#263238" stroke-linecap="round" stroke-linejoin="round"/>
<path d="M431.555 172.147C431.555 172.147 424.833 185.898 427.069 193.873C429.306 201.847 431.875 208.314 431.875 208.314C431.875 208.314 430.916 216.634 437.626 221.426C444.335 226.219 450.405 234.551 457.792 234.551C465.179 234.551 471.224 219.215 471.224 217.937C472.302 211.895 472.194 205.701 470.905 199.7C468.668 190.102 458.431 175.06 448.834 171.865C439.236 168.67 432.514 168.696 431.555 172.147Z" fill="white" stroke="#263238" stroke-linecap="round" stroke-linejoin="round"/>
<path d="M436.987 196.147C436.987 196.147 442.099 198.064 442.099 206.065" stroke="#263238" stroke-linecap="round" stroke-linejoin="round"/>
<path d="M443.07 215.982C443.07 215.982 442.431 217.26 444.987 218.218C447.543 219.177 449.473 215.662 449.473 215.662" stroke="#263238" stroke-linecap="round" stroke-linejoin="round"/>
<path d="M448.195 222.692C448.195 222.692 455.543 222.053 458.419 216.302" stroke="#263238" stroke-linecap="round" stroke-linejoin="round"/>
<path d="M435.389 196.147C434.827 195.888 434.21 195.768 433.591 195.799C432.973 195.829 432.371 196.009 431.837 196.323C431.303 196.637 430.853 197.076 430.526 197.602C430.199 198.127 430.004 198.725 429.958 199.342" stroke="#263238" stroke-linecap="round" stroke-linejoin="round"/>
<path d="M445.306 193.898C446.364 192.508 447.809 191.462 449.461 190.893C451.112 190.325 452.896 190.258 454.585 190.703" stroke="#263238" stroke-linecap="round" stroke-linejoin="round"/>
<path d="M453.332 201.285C453.792 202.333 453.728 203.368 453.204 203.585C452.68 203.803 451.926 203.151 451.441 202.103C450.955 201.055 451.057 200.02 451.581 199.802C452.105 199.585 452.885 200.237 453.332 201.285Z" fill="#263238"/>
<path d="M437.408 206.154C437.856 207.202 437.804 208.237 437.281 208.455C436.757 208.672 436.003 208.02 435.517 206.972C435.031 205.924 435.133 204.902 435.657 204.672C436.181 204.442 436.961 205.119 437.408 206.154Z" fill="#263238"/>
<path d="M500.657 273.172L493.947 315.666C493.947 315.666 455.288 308.637 447.3 305.761C439.313 302.886 431.006 300.01 431.006 300.01L417.587 288.828C415.67 287.23 413.114 286.272 408.002 286.591C402.89 286.911 400.334 285.952 395.861 288.508C391.388 291.064 389.151 292.981 392.027 292.981C394.902 292.981 400.653 291.064 400.653 291.064L407.682 291.703C407.682 291.703 396.5 297.774 397.778 300.649C399.056 303.525 401.931 308.317 401.931 308.317C401.931 308.317 402.57 315.027 401.931 316.944C401.292 318.861 402.251 318.861 404.168 315.666C405.15 314.19 405.904 312.574 406.404 310.873L414.392 308.637C414.392 308.637 424.296 312.79 425.894 312.79H431.006C431.006 312.79 465.512 326.848 471.902 330.363C478.292 333.877 489.155 338.35 496.823 338.989C504.491 339.628 508.964 343.782 511.52 339.309C514.076 334.836 525.897 282.118 527.175 274.77C527.965 270.017 528.392 265.21 528.453 260.392C528.453 260.392 523.022 254.641 516.312 257.836C509.603 261.031 500.657 273.172 500.657 273.172Z" fill="white" stroke="#263238" stroke-linecap="round" stroke-linejoin="round"/>
<path d="M401.931 308.317L413.65 301.518" stroke="#263238" stroke-linecap="round" stroke-linejoin="round"/>
<path d="M400.091 304.062L410.903 295.589" stroke="#263238" stroke-linecap="round" stroke-linejoin="round"/>
<path d="M493.947 315.666C497.681 316.029 501.285 317.23 504.491 319.18L493.947 315.666Z" fill="white"/>
<path d="M493.947 315.666C497.681 316.029 501.285 317.23 504.491 319.18" stroke="#263238" stroke-linecap="round" stroke-linejoin="round"/>
<path d="M504.81 233.874C510.675 233.098 516.615 234.583 521.424 238.027C529.092 243.778 530.69 265.504 530.69 265.504C530.69 265.504 524.619 261.351 518.549 262.948C512.478 264.546 499.059 277.965 499.059 277.965L501.615 250.488" fill="white"/>
<path d="M504.81 233.874C510.675 233.098 516.615 234.583 521.424 238.027C529.092 243.778 530.69 265.504 530.69 265.504C530.69 265.504 524.619 261.351 518.549 262.948C512.478 264.546 499.059 277.965 499.059 277.965L501.615 250.488" stroke="#263238" stroke-linecap="round" stroke-linejoin="round"/>
<path d="M428.769 243.139C422.699 249.21 416.948 264.226 416.948 264.226L430.047 275.089L445.23 236.047C439.785 237.286 432.373 239.535 428.769 243.139Z" fill="white" stroke="#263238" stroke-linecap="round" stroke-linejoin="round"/>
<path d="M429.408 174.127C429.408 174.127 444.744 174.447 450.495 184.671C456.246 194.895 456.566 203.521 462.956 209.911C469.346 216.301 477.333 238.986 477.333 249.529C477.333 260.073 470.943 264.865 470.943 264.865C470.943 264.865 481.806 272.214 499.379 262.309C516.951 252.405 506.727 233.874 506.727 233.874C506.727 233.874 508.005 232.915 513.437 234.193C518.868 235.471 523.98 239.944 523.98 239.944C523.444 235.842 522.258 231.852 520.466 228.123C517.59 222.372 508.325 223.969 503.532 207.994C498.74 192.019 500.018 180.517 493.628 170.293C487.238 160.069 468.387 149.526 457.844 147.609C447.3 145.692 422.699 165.181 419.823 171.571C416.948 177.961 425.255 174.447 425.255 174.447" fill="#263238"/>
<path d="M429.408 174.127C429.408 174.127 444.744 174.447 450.495 184.671C456.246 194.895 456.566 203.521 462.956 209.911C469.346 216.301 477.333 238.986 477.333 249.529C477.333 260.073 470.943 264.865 470.943 264.865C470.943 264.865 481.806 272.214 499.379 262.309C516.951 252.405 506.727 233.874 506.727 233.874C506.727 233.874 508.005 232.915 513.437 234.193C518.868 235.471 523.98 239.944 523.98 239.944C523.444 235.842 522.258 231.852 520.466 228.123C517.59 222.372 508.325 223.969 503.532 207.994C498.74 192.019 500.018 180.517 493.628 170.293C487.238 160.069 468.387 149.526 457.844 147.609C447.3 145.692 422.699 165.181 419.823 171.571C416.948 177.961 425.255 174.447 425.255 174.447" stroke="#263238" stroke-linecap="round" stroke-linejoin="round"/>
<path d="M339.948 605.925H23.0039" stroke="#263238" stroke-miterlimit="10" stroke-linecap="round"/>
<path d="M617.274 605.925H347.616" stroke="#263238" stroke-miterlimit="10" stroke-linecap="round"/>
</svg>
