<svg width="639" height="639" viewBox="0 0 639 639" fill="none" xmlns="http://www.w3.org/2000/svg">
<path d="M583.471 267.243C521.181 160.555 352.217 198.55 317.711 146.663C300.036 120.132 280.265 89.2939 251.587 73.2805C224.251 57.9445 192.556 52.5641 164.926 54.5834C66.2515 61.8041 24.4226 150.088 43.3753 247.037C68.6797 376.358 183.316 508.465 319.5 509.385C390.736 509.922 458.802 484.362 512.095 448.412L513.283 447.607C566.576 411.324 631.038 348.69 583.471 267.243Z" fill="#92E3A9"/>
<path opacity="0.7" d="M583.471 267.243C521.181 160.555 352.217 198.55 317.711 146.663C300.036 120.132 280.265 89.2939 251.587 73.2805C224.251 57.9445 192.556 52.5641 164.926 54.5834C66.2515 61.8041 24.4226 150.088 43.3753 247.037C68.6797 376.358 183.316 508.465 319.5 509.385C390.736 509.922 458.802 484.362 512.095 448.412L513.283 447.607C566.576 411.324 631.038 348.69 583.471 267.243Z" fill="white"/>
<path d="M99.9268 275H93C85.5669 275 78.4383 277.953 73.1823 283.209C67.9263 288.465 64.9735 295.593 64.9735 303.027V456.821C64.9735 464.254 67.9263 471.383 73.1823 476.639C78.4383 481.895 85.5669 484.848 93 484.848H188.032C195.465 484.848 202.594 481.895 207.85 476.639C213.106 471.383 216.059 464.254 216.059 456.821" stroke="#263238" stroke-width="1.10311" stroke-linecap="round" stroke-linejoin="round" stroke-dasharray="4.41 4.41"/>
<path d="M208.314 129.883V99.5051C208.314 94.9597 210.117 90.5999 213.327 87.3822C216.538 84.1645 220.894 82.3517 225.439 82.3416H349.022C353.574 82.3416 357.939 84.1498 361.158 87.3686C364.377 90.5874 366.185 94.953 366.185 99.5051" stroke="#263238" stroke-width="1.10311" stroke-linecap="round" stroke-linejoin="round" stroke-dasharray="4.41 4.41"/>
<path d="M319.5 603.421C454.679 603.421 564.263 588.109 564.263 569.221C564.263 550.333 454.679 535.022 319.5 535.022C184.321 535.022 74.7374 550.333 74.7374 569.221C74.7374 588.109 184.321 603.421 319.5 603.421Z" fill="#92E3A9"/>
<path opacity="0.5" d="M319.5 603.421C454.679 603.421 564.263 588.109 564.263 569.221C564.263 550.333 454.679 535.022 319.5 535.022C184.321 535.022 74.7374 550.333 74.7374 569.221C74.7374 588.109 184.321 603.421 319.5 603.421Z" fill="white"/>
<path d="M550.23 170.639V400.755C550.23 408.278 547.243 415.492 541.925 420.812C536.607 426.133 529.394 429.123 521.871 429.127H117.129C109.606 429.123 102.393 426.133 97.0752 420.812C91.7573 415.492 88.7699 408.278 88.7699 400.755V170.639C88.7699 169.961 88.7699 169.361 88.8594 168.645C89.3576 161.486 92.5522 154.783 97.7986 149.888C103.045 144.993 109.953 142.269 117.129 142.267H521.871C529.055 142.27 535.97 145.001 541.218 149.907C546.466 154.813 549.655 161.528 550.141 168.696C550.205 169.309 550.23 169.974 550.23 170.639Z" fill="white" stroke="#263238" stroke-width="1.10311" stroke-linecap="round" stroke-linejoin="round"/>
<path d="M102.572 179.278H537.872V391.848C537.872 398.898 535.071 405.659 530.086 410.644C525.101 415.629 518.34 418.43 511.289 418.43H129.167C122.117 418.43 115.356 415.629 110.371 410.644C105.386 405.659 102.585 398.898 102.585 391.848V179.278H102.572Z" fill="#263238"/>
<path opacity="0.2" d="M537.885 179.278V391.848C537.922 398.858 535.174 405.597 530.244 410.582C525.314 415.566 518.607 418.389 511.596 418.43H128.861C121.85 418.389 115.143 415.566 110.213 410.582C105.283 405.597 102.535 398.858 102.572 391.848V179.278H537.885Z" fill="white"/>
<path d="M550.141 168.696H88.8595C89.3577 161.538 92.5523 154.835 97.7988 149.939C103.045 145.044 109.953 142.32 117.129 142.318H521.871C529.047 142.32 535.955 145.044 541.202 149.939C546.448 154.835 549.643 161.538 550.141 168.696Z" fill="#92E3A9" stroke="#263238" stroke-width="1.10311" stroke-miterlimit="10"/>
<path d="M145.539 155.456C145.539 156.449 145.244 157.42 144.692 158.246C144.14 159.072 143.356 159.716 142.438 160.096C141.52 160.476 140.511 160.576 139.536 160.382C138.562 160.188 137.667 159.71 136.965 159.007C136.262 158.305 135.784 157.41 135.59 156.436C135.396 155.461 135.496 154.452 135.876 153.534C136.256 152.616 136.9 151.832 137.726 151.28C138.552 150.728 139.523 150.433 140.516 150.433C141.848 150.433 143.126 150.963 144.068 151.904C145.009 152.846 145.539 154.124 145.539 155.456Z" fill="#263238"/>
<path d="M166.779 155.456C166.779 156.449 166.484 157.42 165.933 158.246C165.381 159.072 164.596 159.716 163.678 160.096C162.761 160.476 161.751 160.576 160.777 160.382C159.802 160.188 158.907 159.71 158.205 159.007C157.503 158.305 157.024 157.41 156.83 156.436C156.637 155.461 156.736 154.452 157.116 153.534C157.496 152.616 158.14 151.832 158.966 151.28C159.792 150.728 160.763 150.433 161.756 150.433C163.088 150.433 164.366 150.963 165.308 151.904C166.25 152.846 166.779 154.124 166.779 155.456Z" fill="#263238"/>
<path d="M182.997 160.478C185.771 160.478 188.019 158.23 188.019 155.456C188.019 152.682 185.771 150.433 182.997 150.433C180.223 150.433 177.974 152.682 177.974 155.456C177.974 158.23 180.223 160.478 182.997 160.478Z" fill="#263238"/>
<path d="M537.872 179.278V391.848C537.872 398.898 535.071 405.659 530.086 410.644C525.101 415.629 518.34 418.43 511.289 418.43H129.167C123.014 418.429 117.052 416.293 112.298 412.387C107.543 408.481 104.291 403.047 103.096 397.011V396.934C102.771 395.249 102.609 393.538 102.611 391.822V179.278H537.872Z" stroke="#263238" stroke-width="1.10311" stroke-miterlimit="10"/>
<path d="M537.463 212.148C535.599 211.102 533.617 210.282 531.559 209.707L529.169 199.036H519.021L516.657 209.707C514.587 210.272 512.595 211.092 510.727 212.148L501.564 206.282L494.394 213.426L500.158 222.589C499.103 224.458 498.283 226.449 497.717 228.519L487.046 230.884V241.031L497.717 243.421C498.277 245.501 499.097 247.502 500.158 249.376L494.292 258.603L501.474 265.773L510.689 259.907C512.553 260.965 514.54 261.789 516.606 262.361L518.983 273.019H529.092L531.469 262.361C533.529 261.784 535.511 260.96 537.373 259.907L537.846 260.214V211.892L537.463 212.148ZM524.121 249.21C521.527 249.21 518.991 248.441 516.834 246.999C514.678 245.558 512.997 243.509 512.005 241.113C511.013 238.716 510.754 236.079 511.261 233.535C511.768 230.991 513.018 228.655 514.853 226.821C516.688 224.988 519.026 223.74 521.57 223.236C524.115 222.731 526.752 222.993 529.147 223.987C531.543 224.982 533.59 226.664 535.029 228.822C536.469 230.98 537.235 233.517 537.233 236.111C537.233 237.832 536.894 239.536 536.235 241.126C535.575 242.717 534.609 244.161 533.392 245.378C532.174 246.594 530.728 247.559 529.138 248.217C527.547 248.874 525.842 249.212 524.121 249.21Z" fill="#263238"/>
<path d="M354.581 222.436V201.042L332.088 196.045C330.875 191.699 329.159 187.509 326.976 183.559L329.699 179.278H223.497L226.117 183.444C223.907 187.376 222.19 191.566 221.005 195.917L198.499 200.927V222.372L221.005 227.395C222.19 231.779 223.907 236.002 226.117 239.97L213.758 259.408L228.903 274.54L248.328 262.169C252.269 264.386 256.461 266.123 260.814 267.345L265.824 289.774H287.167L292.202 267.294C296.541 266.066 300.72 264.329 304.65 262.118L324.088 274.489L339.22 259.357L326.938 239.919C329.115 235.976 330.83 231.795 332.05 227.458L354.581 222.436ZM276.623 239.382C271.156 239.382 265.811 237.761 261.265 234.723C256.72 231.686 253.176 227.369 251.084 222.318C248.992 217.266 248.445 211.708 249.511 206.346C250.578 200.984 253.211 196.058 257.076 192.192C260.942 188.326 265.868 185.694 271.23 184.627C276.592 183.56 282.151 184.108 287.202 186.2C292.253 188.292 296.57 191.835 299.608 196.381C302.645 200.927 304.266 206.272 304.266 211.739C304.268 215.37 303.554 218.965 302.166 222.32C300.777 225.674 298.741 228.722 296.174 231.289C293.606 233.857 290.558 235.893 287.204 237.281C283.849 238.67 280.254 239.384 276.623 239.382Z" fill="#263238"/>
<path d="M212.634 369.342L213.541 352.357L195.943 347.399C195.126 343.908 193.917 340.521 192.339 337.303L202.972 322.376L191.572 309.736L175.648 318.682C172.605 316.767 169.35 315.21 165.948 314.043L162.907 295.998L145.935 295.218L141.027 312.867C137.531 313.651 134.141 314.853 130.931 316.446L116.017 305.825L103.352 317.212L112.375 333.149C110.44 336.179 108.878 339.432 107.723 342.836L102.611 343.68V366.684L106.342 367.732C107.117 371.234 108.314 374.628 109.908 377.841L102.572 388.129L103.058 396.934V397.011L110.636 405.407L126.586 396.397C129.624 398.351 132.89 399.927 136.311 401.088L139.302 418.417L139.443 419.146L156.414 420.04L156.862 418.417L161.322 402.404C164.834 401.617 168.241 400.416 171.469 398.825L186.358 409.433L199.01 398.059L190.064 382.109C191.98 379.083 193.521 375.834 194.652 372.435L212.634 369.342ZM167.559 342.824C164.651 339.59 160.85 337.291 156.637 336.218C152.423 335.145 147.985 335.346 143.885 336.795C139.786 338.244 136.208 340.877 133.605 344.36C131.001 347.843 129.49 352.02 129.261 356.363C129.032 360.705 130.096 365.018 132.319 368.755C134.541 372.493 137.822 375.487 141.747 377.359C145.672 379.232 150.063 379.898 154.367 379.274C158.67 378.65 162.692 376.763 165.923 373.853C170.237 369.956 172.831 364.508 173.138 358.702C173.444 352.896 171.438 347.205 167.559 342.875V342.824Z" fill="#263238"/>
<path d="M348.383 344.025C349.04 341.395 349.387 338.697 349.418 335.986L361.623 329.596L358.249 317.212L344.472 317.851C343.077 315.537 341.417 313.392 339.526 311.461L343.603 298.285L332.484 291.895L323.181 302.042C320.555 301.409 317.868 301.066 315.168 301.02L308.778 288.815L296.406 292.176L297.058 305.966C294.744 307.361 292.599 309.021 290.668 310.912L277.479 306.835L271.089 317.941L281.313 327.232C280.652 329.852 280.313 332.543 280.304 335.245L268.073 341.635L271.447 354.006L285.25 353.354C286.618 355.68 288.27 357.827 290.17 359.744L286.067 372.856L297.199 379.246L306.452 369.176C309.08 369.837 311.78 370.177 314.49 370.185L320.88 382.403L333.251 379.042L332.702 367.259L332.612 365.24C334.959 363.858 337.131 362.197 339.079 360.294L352.255 364.383L357.699 354.875L358.62 353.265L348.383 344.025ZM319.155 351.539C315.982 352.414 312.622 352.327 309.499 351.29C306.376 350.252 303.631 348.31 301.613 345.71C299.596 343.11 298.395 339.97 298.165 336.687C297.934 333.404 298.684 330.127 300.319 327.271C301.953 324.415 304.399 322.108 307.347 320.644C310.294 319.18 313.61 318.624 316.873 319.047C320.137 319.47 323.201 320.853 325.678 323.02C328.155 325.187 329.932 328.041 330.785 331.219C331.921 335.456 331.336 339.969 329.157 343.776C326.979 347.583 323.383 350.373 319.155 351.539Z" fill="#263238"/>
<path d="M489.883 365.802L492.695 348.805L475.493 341.891C475.102 338.268 474.274 334.706 473.026 331.283L485.41 317.494L475.39 303.436L458.316 310.682C455.482 308.41 452.384 306.487 449.089 304.956L448.092 286.438L431.095 283.627L424.13 300.752C420.523 301.176 416.977 302.012 413.561 303.244L399.733 290.86L385.739 300.88L392.998 317.941C391 320.435 389.265 323.129 387.822 325.98C387.63 326.376 387.426 326.772 387.247 327.168L368.741 328.19L365.917 345.162L368.703 346.287L383.119 352.102C383.512 355.707 384.34 359.252 385.585 362.658L373.176 376.537L383.208 390.595L400.27 383.311C403.095 385.603 406.189 387.543 409.484 389.087L410.443 407.516L427.427 410.328L434.379 393.33C437.994 392.935 441.547 392.103 444.961 390.851L458.764 403.235L472.822 393.202L465.563 376.128C467.875 373.291 469.828 370.179 471.378 366.863L489.883 365.802ZM442.214 365.035C438.638 367.601 434.381 369.048 429.983 369.195C425.584 369.341 421.241 368.18 417.503 365.858C413.764 363.535 410.798 360.157 408.98 356.149C407.162 352.141 406.573 347.684 407.289 343.342C408.004 338.999 409.99 334.966 412.998 331.753C416.005 328.54 419.898 326.291 424.183 325.29C428.469 324.289 432.955 324.582 437.075 326.131C441.194 327.68 444.761 330.416 447.326 333.993C450.761 338.79 452.149 344.756 451.186 350.578C450.222 356.399 446.986 361.6 442.188 365.035H442.214Z" fill="#263238"/>
<path d="M259.536 239.97H125.883C116.63 239.97 109.128 247.471 109.128 256.725V441.766C109.128 451.02 116.63 458.521 125.883 458.521H259.536C268.79 458.521 276.291 451.02 276.291 441.766V256.725C276.291 247.471 268.79 239.97 259.536 239.97Z" fill="#92E3A9" stroke="#263238" stroke-width="1.10311" stroke-miterlimit="10"/>
<path opacity="0.2" d="M259.536 239.97H125.883C116.63 239.97 109.128 247.471 109.128 256.725V441.766C109.128 451.02 116.63 458.521 125.883 458.521H259.536C268.79 458.521 276.291 451.02 276.291 441.766V256.725C276.291 247.471 268.79 239.97 259.536 239.97Z" fill="black"/>
<path d="M291.844 273.236V458.278C291.846 460.479 291.414 462.659 290.572 464.694C289.731 466.728 288.497 468.576 286.941 470.134C285.385 471.691 283.538 472.926 281.504 473.769C279.471 474.612 277.291 475.045 275.09 475.045H141.436C139.236 475.044 137.058 474.609 135.026 473.765C132.993 472.922 131.147 471.686 129.593 470.129C128.038 468.572 126.805 466.724 125.965 464.691C125.124 462.657 124.693 460.478 124.694 458.278V273.236C124.694 268.795 126.458 264.535 129.597 261.394C132.737 258.252 136.995 256.485 141.436 256.482H275.09C279.533 256.482 283.795 258.247 286.937 261.389C290.079 264.531 291.844 268.793 291.844 273.236Z" fill="white" stroke="#263238" stroke-width="1.10311" stroke-linecap="round" stroke-linejoin="round"/>
<path d="M291.844 273.236V283.141H124.694V273.236C124.694 268.795 126.458 264.535 129.597 261.394C132.737 258.252 136.995 256.485 141.436 256.482H275.089C279.533 256.482 283.795 258.247 286.937 261.389C290.079 264.531 291.844 268.793 291.844 273.236Z" fill="#92E3A9" stroke="#263238" stroke-width="1.10311" stroke-miterlimit="10"/>
<path d="M181.54 294.617H140.414V301.519H181.54V294.617Z" fill="#92E3A9"/>
<path d="M181.54 356.46H140.414V363.361H181.54V356.46Z" fill="#92E3A9"/>
<path d="M181.54 412.538H140.414V419.44H181.54V412.538Z" fill="#92E3A9"/>
<path d="M257.21 311.704H140.414V316.765H257.21V311.704Z" fill="#263238"/>
<path d="M236.149 321.379H140.414V326.312H236.149V321.379Z" fill="#263238"/>
<path d="M248.686 330.9H140.414V335.833H248.686V330.9Z" fill="#263238"/>
<path d="M248.686 340.408H140.414V345.341H248.686V340.408Z" fill="#263238"/>
<path d="M257.21 367.783H140.414V372.844H257.21V367.783Z" fill="#263238"/>
<path d="M236.149 377.457H140.414V382.39H236.149V377.457Z" fill="#263238"/>
<path d="M248.686 386.978H140.414V391.911H248.686V386.978Z" fill="#263238"/>
<path d="M257.21 429.357H140.414V434.418H257.21V429.357Z" fill="#263238"/>
<path d="M236.149 439.044H140.414V443.977H236.149V439.044Z" fill="#263238"/>
<path d="M248.686 448.565H140.414V453.498H248.686V448.565Z" fill="#263238"/>
<path d="M480.234 128.171V202.959C480.234 205.583 479.717 208.182 478.712 210.606C477.708 213.031 476.235 215.233 474.379 217.088C472.523 218.943 470.319 220.414 467.894 221.418C465.469 222.421 462.87 222.936 460.246 222.934H287.997C285.373 222.936 282.774 222.421 280.349 221.418C277.924 220.414 275.721 218.943 273.864 217.088C272.008 215.233 270.536 213.031 269.531 210.606C268.526 208.182 268.009 205.583 268.009 202.959V128.171C268.013 122.871 270.12 117.789 273.867 114.041C277.615 110.293 282.697 108.186 287.997 108.183H460.246C465.547 108.183 470.631 110.289 474.38 114.037C478.128 117.786 480.234 122.87 480.234 128.171Z" fill="white" stroke="#222221" stroke-width="1.10311" stroke-miterlimit="10"/>
<path d="M480.234 128.171V129.883H268.009V128.171C268.013 122.871 270.12 117.789 273.867 114.041C277.615 110.293 282.697 108.186 287.997 108.183H460.246C465.547 108.183 470.631 110.289 474.38 114.037C478.128 117.786 480.234 122.87 480.234 128.171Z" fill="#92E3A9" stroke="#263238" stroke-width="1.10311" stroke-miterlimit="10"/>
<path d="M299.193 122.611C298.764 123.041 298.217 123.334 297.622 123.453C297.027 123.572 296.41 123.511 295.849 123.28C295.288 123.048 294.809 122.655 294.471 122.15C294.134 121.645 293.954 121.052 293.954 120.445C293.954 119.838 294.134 119.245 294.471 118.74C294.809 118.236 295.288 117.843 295.849 117.611C296.41 117.379 297.027 117.318 297.622 117.437C298.217 117.556 298.764 117.849 299.193 118.279C299.763 118.856 300.083 119.634 300.083 120.445C300.083 121.256 299.763 122.035 299.193 122.611Z" fill="#263238"/>
<path d="M313.404 122.611C312.975 123.041 312.429 123.334 311.834 123.453C311.238 123.572 310.621 123.511 310.06 123.28C309.5 123.048 309.02 122.655 308.683 122.15C308.345 121.645 308.165 121.052 308.165 120.445C308.165 119.838 308.345 119.245 308.683 118.74C309.02 118.236 309.5 117.843 310.06 117.611C310.621 117.379 311.238 117.318 311.834 117.437C312.429 117.556 312.975 117.849 313.404 118.279C313.974 118.856 314.294 119.634 314.294 120.445C314.294 121.256 313.974 122.035 313.404 122.611Z" fill="#263238"/>
<path d="M327.615 122.611C327.187 123.041 326.64 123.334 326.045 123.453C325.45 123.572 324.833 123.511 324.272 123.28C323.711 123.048 323.231 122.655 322.894 122.15C322.557 121.645 322.377 121.052 322.377 120.445C322.377 119.838 322.557 119.245 322.894 118.74C323.231 118.236 323.711 117.843 324.272 117.611C324.833 117.379 325.45 117.318 326.045 117.437C326.64 117.556 327.187 117.849 327.615 118.279C328.186 118.856 328.506 119.634 328.506 120.445C328.506 121.256 328.186 122.035 327.615 122.611Z" fill="#263238"/>
<path d="M350.913 143.634H281.543V203.598H350.913V143.634Z" stroke="#263238" stroke-width="1.10311" stroke-linecap="round" stroke-linejoin="round" stroke-dasharray="4.41 4.41"/>
<path d="M441.46 143.634H361.623V147.852H441.46V143.634Z" fill="#263238"/>
<path d="M422.865 152.363H361.623V156.568H422.865V152.363Z" fill="#263238"/>
<path d="M452.808 161.054H361.623V165.309H452.808V161.054Z" fill="#263238"/>
<path d="M439.274 169.527H361.623V173.782H439.274V169.527Z" fill="#263238"/>
<path d="M486.036 313.787H446.993C442.384 313.787 438.648 317.524 438.648 322.133V345.047C438.648 349.656 442.384 353.393 446.993 353.393H486.036C490.645 353.393 494.382 349.656 494.382 345.047V322.133C494.382 317.524 490.645 313.787 486.036 313.787Z" fill="white" stroke="#263238" stroke-width="1.10311" stroke-linecap="round" stroke-linejoin="round"/>
<path d="M456.629 325.698L445.907 332.421L455.863 341.239" stroke="#263238" stroke-width="1.10311" stroke-linecap="round" stroke-linejoin="round"/>
<path d="M476.157 341.878L485.793 333.673L474.675 326.388" stroke="#263238" stroke-width="1.10311" stroke-linecap="round" stroke-linejoin="round"/>
<path d="M461.844 346.939L469.754 322.12" stroke="#263238" stroke-width="1.10311" stroke-linecap="round" stroke-linejoin="round"/>
<path d="M379.387 562.921C379.387 562.921 342.325 573.541 337.149 575.381C332.446 577.043 319.692 581.516 310.12 580.123C309.195 579.99 308.282 579.793 307.385 579.535C297.685 576.646 293.327 573.95 292.049 567.854C290.771 561.758 295.601 557.259 300.253 554.384C304.905 551.508 330.133 548.505 330.133 548.505L336.229 550.294L379.387 562.921Z" fill="#92E3A9"/>
<path d="M310.119 580.123C309.195 579.99 308.282 579.793 307.385 579.535C297.685 576.646 293.327 573.95 292.049 567.854C290.771 561.758 295.601 557.259 300.253 554.384C304.905 551.508 330.133 548.505 330.133 548.505L336.229 550.294C330.708 552.85 310.158 554.243 305.672 556.825C301.186 559.406 299.026 564.263 301.672 570.883C303.09 574.333 306.873 577.72 310.119 580.123Z" fill="white"/>
<path d="M373.815 564.429C373.815 564.429 345.98 571.637 334.938 576.25C323.896 580.864 302.848 582.883 295.32 573.375C287.793 563.866 294.451 555.662 301.953 553.834C309.455 552.007 324.625 549.131 332.906 550.294" stroke="#263238" stroke-width="1.10311" stroke-linecap="round" stroke-linejoin="round"/>
<path d="M310.669 579.624C310.669 579.624 296.509 571.854 301.212 560.965C304.688 552.94 323.577 554.678 332.932 550.294" stroke="#263238" stroke-width="1.10311" stroke-linecap="round" stroke-linejoin="round"/>
<path d="M492.273 581.848C491.889 585.682 490.548 589.273 486.714 591.535C484.158 593.043 480.528 593.938 475.327 593.887C462.329 593.721 437.894 584.429 437.894 584.429L415.018 571.777L426.916 552.952L430.175 547.84L438.584 549.732C438.584 549.732 445.549 553.681 452.553 556.825C459.556 559.969 476.566 560.659 482.56 565.477C488.554 570.295 492.925 575.535 492.273 581.848Z" fill="#92E3A9"/>
<path d="M492.273 581.848C491.889 585.682 490.548 589.273 486.714 591.535C487.818 587.766 487.592 583.732 486.075 580.11C483.519 574.372 475.199 569.311 464.259 568.467C453.319 567.624 444.949 562.512 440.565 560.224C437.14 558.448 429.919 554.563 426.916 552.952L430.175 547.84L438.584 549.732C438.584 549.732 445.549 553.681 452.553 556.825C459.556 559.969 476.566 560.659 482.56 565.477C488.554 570.295 492.925 575.535 492.273 581.848Z" fill="white"/>
<path d="M420.091 575.33C436.558 584.902 454.758 591.118 473.64 593.618C477.806 594.117 482.65 594.193 485.436 591.062C486.177 590.158 486.729 589.114 487.058 587.992C487.387 586.87 487.487 585.693 487.353 584.532C486.854 578.653 481.908 574.001 476.49 571.662C471.071 569.323 465.103 568.787 459.339 567.496C453.607 566.204 448.065 564.176 442.853 561.464C438.712 559.304 434.712 556.684 430.149 555.713C425.587 554.741 420.155 555.917 417.714 559.905" stroke="#263238" stroke-width="1.10311" stroke-linecap="round" stroke-linejoin="round"/>
<path d="M483.902 592.66C486.043 591.635 487.915 590.123 489.369 588.246C490.822 586.369 491.816 584.178 492.273 581.848C493.103 576.314 489.947 570.742 485.512 567.343C481.077 563.943 475.518 562.333 470.036 561.195C464.553 560.058 458.943 559.291 453.69 557.208C445.677 554.064 437.766 547.879 429.408 550.09" stroke="#263238" stroke-width="1.10311" stroke-linecap="round" stroke-linejoin="round"/>
<path d="M445.907 377.342L407.196 362.62L406.711 362.428C406.711 362.428 406.851 361.406 406.966 359.872C407.209 356.779 407.337 351.744 405.88 350.044C403.72 347.488 397.611 349.635 391.643 346.9C385.675 344.166 374.646 349.06 374.646 349.06C374.646 349.06 366.671 347.591 363.144 353.342C361.355 357.981 361.968 364.844 361.968 364.844L361.24 365.099C356.626 366.824 331.526 376.269 326.222 380.065C320.356 384.218 313.864 426.865 311.781 439.389C309.698 451.914 305.992 463.198 307.87 467.505C309.749 471.812 336.715 492.58 352.23 497.934C367.745 503.289 422.762 501.768 422.762 501.768C422.762 501.768 423.657 501.526 425.255 501.014C434.558 498.024 467.569 485.678 485.09 456.693C485.116 456.745 468.144 401.113 445.907 377.342ZM341.315 449.077C338.466 451.096 340.037 458.917 340.037 458.917L335.194 454.649L347.36 424.731L352.549 447.735C352.549 447.735 344.165 447.07 341.315 449.077ZM438.648 468.08C437.306 468.771 442.482 454.393 440.028 451.134C437.574 447.875 430.175 448.182 430.175 448.182L430.801 444.258L435.185 421.766L436.642 420.04C436.642 420.04 451.696 445.843 454.393 454.943C454.393 454.968 437.983 468.08 438.648 468.08Z" fill="#92E3A9"/>
<path d="M372.818 284.036L352.83 305.25C352.83 305.25 350.083 307.691 351.169 313.838C352.255 319.986 354.811 325.34 356.741 325.698C358.269 325.966 359.816 326.103 361.367 326.107C361.367 326.107 365.649 335.386 368.69 339.028C368.69 339.028 369.738 353.354 369.176 357.329C369.176 357.329 376.358 363.604 383.119 364.396C389.879 365.189 400.321 354.837 400.321 354.837L402.877 342.159C402.877 342.159 409.011 332.855 409.42 330.376C409.829 327.896 412.641 328.535 414.021 327.309C415.401 326.082 418.583 320.625 419.133 315.462C419.682 310.298 419.695 304.369 413.701 306.107C408.5 304.714 411.759 293.723 411.759 293.723L402.621 285.671L372.818 284.036Z" fill="white"/>
<path opacity="0.5" d="M407.196 362.62C406.895 363.41 406.549 364.182 406.161 364.933C402.864 371.144 388.499 382.991 388.499 382.991L384.154 369.636L381.777 382.991C376.984 380.895 362.364 368.23 362.364 368.23C362.364 368.23 361.866 367.042 361.265 365.189L361.993 364.933C361.993 364.933 361.38 358.019 363.169 353.431C366.671 347.68 374.671 349.15 374.671 349.15C374.671 349.15 385.7 344.255 391.669 346.99C397.637 349.725 403.746 347.603 405.906 350.134C408.065 352.664 406.736 362.479 406.736 362.479L407.196 362.62Z" fill="white"/>
<path opacity="0.2" d="M445.907 377.342L407.196 362.62L406.711 362.428C406.711 362.428 406.851 361.406 406.966 359.872L406.161 364.895L400.436 372.665C406.556 374.918 412.531 377.548 418.328 380.537C421.103 382.024 423.366 384.31 424.825 387.1C426.284 389.889 426.87 393.053 426.507 396.18L419.376 457.205L416.449 491.851L425.28 501.014C434.584 498.024 467.595 485.678 485.116 456.693C485.116 456.744 468.144 401.113 445.907 377.342ZM438.648 468.08C437.306 468.77 442.482 454.393 440.028 451.134C437.574 447.875 430.175 448.182 430.175 448.182L430.801 444.258L435.184 421.766L436.641 420.04C436.641 420.04 451.696 445.843 454.393 454.943C454.393 454.968 437.983 468.08 438.648 468.08Z" fill="black"/>
<path opacity="0.2" d="M355.118 451.134L349.098 431.018C349.098 431.018 338.299 394.199 330.9 385.125L332.842 411.018C332.842 411.018 326.452 441.945 320.612 451.134C314.771 460.323 313.468 462.636 320.612 462.636C327.756 462.636 345.149 476.49 345.149 476.49L343.808 464.988L355.118 451.134ZM339.948 458.917L335.104 454.649L347.271 424.731L352.46 447.735C352.46 447.735 344.127 447.108 341.277 449.115C338.427 451.121 339.948 458.917 339.948 458.917Z" fill="black"/>
<path d="M368.69 339.028C368.69 339.028 369.789 349.878 368.69 354.837" stroke="#263238" stroke-width="1.10311" stroke-linecap="round" stroke-linejoin="round"/>
<path d="M401.433 353.38C401.445 349.891 401.847 346.414 402.634 343.015" stroke="#263238" stroke-width="1.10311" stroke-linecap="round" stroke-linejoin="round"/>
<path d="M404.334 292.125C404.334 292.125 410.902 300.368 410.557 306.605C410.212 312.842 409.727 320.228 409.893 327.462C410.059 334.695 398.276 349.852 392.218 351.194C386.16 352.536 380.946 352.881 377.074 349.009C373.201 345.137 369.329 339.756 364.294 332.855C359.259 325.954 360.46 310.81 360.46 310.81" stroke="#263238" stroke-width="1.10311" stroke-linecap="round" stroke-linejoin="round"/>
<path d="M388.512 316.573C388.112 318.838 387.94 321.137 388.001 323.436C387.869 325.374 388.471 327.29 389.688 328.804C390.416 329.545 391.464 330.146 391.605 331.168C391.601 331.628 391.473 332.079 391.235 332.473C390.997 332.866 390.656 333.188 390.25 333.405C389.43 333.818 388.64 334.288 387.886 334.811" stroke="#263238" stroke-width="1.10311" stroke-linecap="round" stroke-linejoin="round"/>
<path d="M378.122 335.603C378.122 335.603 378.876 340.498 385.432 341.52" stroke="#263238" stroke-width="1.10311" stroke-linecap="round" stroke-linejoin="round"/>
<path d="M378.799 320.305C378.799 321.724 378.186 322.861 377.432 322.861C376.678 322.861 376.064 321.724 376.064 320.305C376.064 318.887 376.678 317.749 377.432 317.749C378.186 317.749 378.799 318.899 378.799 320.305Z" fill="#263238"/>
<path d="M398.365 320.919C398.365 322.337 397.752 323.475 396.998 323.475C396.244 323.475 395.63 322.324 395.63 320.919C395.63 319.513 396.244 318.363 396.998 318.363C397.752 318.363 398.365 319.5 398.365 320.919Z" fill="#263238"/>
<path d="M394.416 314.72C394.416 314.72 400.806 308.33 406.161 315.462" stroke="#263238" stroke-width="2.20621" stroke-linecap="round" stroke-linejoin="round"/>
<path d="M380.959 314.848C380.959 314.848 376.921 310.324 370.556 314.848" stroke="#263238" stroke-width="2.20621" stroke-linecap="round" stroke-linejoin="round"/>
<path d="M369.176 345.06C369.176 345.06 373.074 355.795 381.777 358.85C390.48 361.904 402.033 346.07 402.033 346.07L401.433 344.012C401.433 344.012 393.854 353.853 385.432 352.178C377.01 350.504 368.69 339.079 368.69 339.079L369.176 345.06Z" fill="#263238"/>
<path d="M361.367 325.698C361.367 325.698 356.179 327.526 354.798 323.487C353.418 319.449 348.69 308.803 352.83 305.25C356.971 301.698 360.294 309.941 360.294 309.941" stroke="#263238" stroke-width="1.10311" stroke-linecap="round" stroke-linejoin="round"/>
<path d="M409.88 327.897C409.88 327.897 414.698 328.868 416.078 324.829C417.459 320.791 422.187 310.145 418.047 306.592C413.906 303.039 410.583 311.283 410.583 311.283" stroke="#263238" stroke-width="1.10311" stroke-linecap="round" stroke-linejoin="round"/>
<path d="M360.294 320.305C362.096 320.021 363.723 319.061 364.843 317.621C365.528 316.357 365.962 314.973 366.121 313.545C366.596 310.827 366.835 308.073 366.837 305.314C366.781 304.236 366.88 303.156 367.131 302.106C367.515 301.05 368.106 300.081 368.869 299.257C370.671 297.135 372.856 295.346 374.582 293.148C375.507 292.11 376.21 290.895 376.65 289.577C377.089 288.259 377.255 286.864 377.138 285.48C381.092 288.74 385.712 291.094 390.673 292.377C395.634 293.659 400.816 293.84 405.854 292.905C414.992 291.116 423.746 283.103 422.686 273.032C422.485 271.344 421.761 269.76 420.615 268.504C419.469 267.248 417.959 266.382 416.296 266.029C411.784 264.904 407.733 267.307 403.643 268.853C396.193 271.665 388.895 266.834 381.368 266.029C374.978 265.326 367.016 266.131 363.668 272.534C363.668 272.534 352.166 273.888 347.054 283.397C341.942 292.905 351.616 306.055 351.616 306.055C351.616 306.055 355.45 301.352 360.473 310.861L360.294 320.305Z" fill="#263238"/>
<path d="M405.126 289.697C405.126 289.697 402.135 305.289 409.944 312.842C409.944 312.842 411.657 308.151 413.382 307.001C414.626 304.234 415.153 301.198 414.914 298.174C414.675 295.15 413.678 292.234 412.014 289.697C406.238 280.623 405.126 289.697 405.126 289.697Z" fill="#263238"/>
<path opacity="0.2" d="M419.363 271.958C418.677 274.086 417.515 276.029 415.965 277.639C414.414 279.249 412.517 280.484 410.417 281.25C399.58 285.671 389.062 280.777 378.199 279.818C369.342 279.026 359.565 287.026 358.939 296.125" stroke="white" stroke-width="1.10311" stroke-linecap="round" stroke-linejoin="round"/>
<path opacity="0.2" d="M352.255 293.723C352.388 290.132 353.54 286.653 355.577 283.693C357.614 280.733 360.451 278.414 363.757 277.007" stroke="white" stroke-width="1.10311" stroke-linecap="round" stroke-linejoin="round"/>
<path d="M366.185 353.38C370.951 358.347 376.701 362.264 383.068 364.882C383.068 364.882 396.039 361.112 402.634 352.102" stroke="#263238" stroke-width="1.10311" stroke-linecap="round" stroke-linejoin="round"/>
<path d="M379.442 330.711C385.203 328.069 387.731 321.256 385.088 315.495C382.446 309.734 375.633 307.206 369.872 309.848C364.111 312.491 361.583 319.303 364.226 325.065C366.868 330.826 373.68 333.354 379.442 330.711Z" stroke="#263238" stroke-width="1.10311" stroke-linecap="round" stroke-linejoin="round"/>
<path d="M401.68 331.722C407.971 330.949 412.445 325.223 411.673 318.932C410.9 312.641 405.174 308.167 398.883 308.94C392.592 309.712 388.118 315.438 388.891 321.729C389.663 328.02 395.389 332.494 401.68 331.722Z" stroke="#263238" stroke-width="1.10311" stroke-linecap="round" stroke-linejoin="round"/>
<path d="M368.69 349.099C367.528 349.404 366.438 349.94 365.487 350.676C364.537 351.411 363.744 352.331 363.157 353.38C361.124 356.958 362.351 368.217 362.351 368.217C362.351 368.217 372.844 378.595 381.777 382.978L384.41 368.166L388.499 382.978C388.499 382.978 402.327 373.202 406.161 364.933C406.161 364.933 407.439 355.284 406.161 352.153C405.871 351.283 405.318 350.525 404.578 349.983C403.839 349.44 402.95 349.14 402.033 349.124" stroke="#263238" stroke-width="1.10311" stroke-linecap="round" stroke-linejoin="round"/>
<path d="M352.255 448.195C352.255 448.195 348.153 420.718 342.696 409.51" stroke="#263238" stroke-width="1.10311" stroke-linecap="round" stroke-linejoin="round"/>
<path d="M330.9 385.125C334.077 389.641 336.914 394.387 339.386 399.324" stroke="#263238" stroke-width="1.10311" stroke-linecap="round" stroke-linejoin="round"/>
<path d="M438.648 405.637C439.75 401.043 441.259 396.557 443.159 392.231" stroke="#263238" stroke-width="1.10311" stroke-linecap="round" stroke-linejoin="round"/>
<path d="M430.175 448.195C430.175 448.195 433.127 429.357 436.654 413.842" stroke="#263238" stroke-width="1.10311" stroke-linecap="round" stroke-linejoin="round"/>
<path d="M435.185 421.74C438.038 417.957 442.05 415.21 446.61 413.919" stroke="#263238" stroke-width="1.10311" stroke-linecap="round" stroke-linejoin="round"/>
<path d="M406.724 362.428C406.724 362.428 430.533 371.949 445.907 377.355C445.907 377.355 464.821 395.132 485.103 456.745C485.103 456.745 466.521 488.004 431.172 498.024" stroke="#263238" stroke-width="1.10311" stroke-linecap="round" stroke-linejoin="round"/>
<path d="M437.306 469.192L454.393 454.968C454.393 454.968 463.428 448.105 472.822 452.795" stroke="#263238" stroke-width="1.10311" stroke-linecap="round" stroke-linejoin="round"/>
<path d="M436.654 420.04C436.654 420.04 450.776 440.91 454.393 454.968" stroke="#263238" stroke-width="1.10311" stroke-linecap="round" stroke-linejoin="round"/>
<path d="M340.14 459.709L335.143 454.968C335.143 454.968 327.73 453.69 319.321 459.301" stroke="#263238" stroke-width="1.10311" stroke-linecap="round" stroke-linejoin="round"/>
<path d="M335.143 454.968C335.143 454.968 341.354 434.52 347.475 424.053" stroke="#263238" stroke-width="1.10311" stroke-linecap="round" stroke-linejoin="round"/>
<path d="M361.993 364.933C361.993 364.933 327.73 377.79 324.369 381.547C321.008 385.304 308.241 457.192 307.896 465.422C307.602 472.783 334.286 489.308 347.514 496.273" stroke="#263238" stroke-width="1.10311" stroke-linecap="round" stroke-linejoin="round"/>
<path d="M387.617 389.228C387.617 389.675 387.485 390.113 387.236 390.485C386.988 390.857 386.634 391.146 386.221 391.318C385.808 391.489 385.353 391.534 384.914 391.446C384.475 391.359 384.072 391.144 383.756 390.827C383.439 390.511 383.224 390.108 383.137 389.669C383.049 389.23 383.094 388.775 383.265 388.362C383.437 387.949 383.727 387.595 384.099 387.347C384.471 387.098 384.908 386.966 385.355 386.966C385.653 386.964 385.948 387.021 386.223 387.134C386.498 387.248 386.748 387.414 386.959 387.624C387.169 387.835 387.336 388.085 387.449 388.36C387.562 388.635 387.619 388.93 387.617 389.228Z" fill="#263238"/>
<path d="M427.261 509.641H349.303C348.818 509.641 348.353 509.448 348.011 509.106C347.668 508.763 347.475 508.298 347.475 507.813C347.475 507.329 347.668 506.864 348.011 506.521C348.353 506.178 348.818 505.986 349.303 505.986H427.261C427.746 505.986 428.211 506.178 428.553 506.521C428.896 506.864 429.089 507.329 429.089 507.813C429.089 508.298 428.896 508.763 428.553 509.106C428.211 509.448 427.746 509.641 427.261 509.641Z" fill="#263238"/>
<path d="M429.996 503.532L440.437 454.457C440.599 453.696 440.589 452.908 440.407 452.152C440.225 451.396 439.877 450.689 439.386 450.085C438.896 449.481 438.277 448.994 437.574 448.661C436.872 448.327 436.103 448.155 435.325 448.156H344.204C343.432 448.157 342.671 448.328 341.973 448.658C341.276 448.988 340.661 449.469 340.172 450.065C339.683 450.662 339.333 451.359 339.146 452.108C338.959 452.856 338.94 453.637 339.092 454.393L348.459 501.832C348.689 502.997 349.31 504.049 350.218 504.814C351.127 505.578 352.269 506.01 353.456 506.037L424.756 507.673C425.975 507.7 427.165 507.301 428.121 506.545C429.077 505.79 429.74 504.724 429.996 503.532Z" fill="white" stroke="#263238" stroke-width="1.10311" stroke-linecap="round" stroke-linejoin="round"/>
<path d="M396.742 476.477C396.74 477.914 396.311 479.319 395.511 480.513C394.71 481.707 393.573 482.637 392.245 483.186C390.916 483.734 389.454 483.877 388.044 483.594C386.634 483.312 385.34 482.619 384.324 481.601C383.308 480.584 382.617 479.288 382.338 477.878C382.058 476.468 382.203 475.006 382.753 473.678C383.304 472.35 384.236 471.215 385.432 470.417C386.627 469.618 388.033 469.192 389.471 469.192C390.427 469.192 391.373 469.381 392.256 469.747C393.139 470.113 393.942 470.65 394.617 471.327C395.292 472.003 395.828 472.806 396.192 473.69C396.557 474.574 396.744 475.521 396.742 476.477Z" fill="#263238"/>
<path d="M411.043 452.847H421.868" stroke="#263238" stroke-width="1.10311" stroke-linecap="round" stroke-linejoin="round"/>
<path d="M359.348 452.847H400.436" stroke="#263238" stroke-width="1.10311" stroke-linecap="round" stroke-linejoin="round"/>
<path d="M430.175 555.636L421.868 577.439C421.868 577.439 400.679 572.097 373.547 566.537C345.162 560.723 315.525 553.195 300.151 526.217C298.285 522.932 297.033 519.047 297.915 515.366C300.126 506.05 312.254 503.519 320.241 502.586C325.263 502.043 330.309 501.762 335.36 501.743C337.916 501.743 346.415 500.35 348.472 501.871C351.564 504.126 354.863 506.082 358.326 507.711C362.863 509.641 429.089 505.986 429.089 505.986C430.241 503.473 430.946 500.779 431.172 498.024C441.587 492.733 465.678 488.26 475.902 490.241C491.915 493.346 501.257 502.689 499.481 512.478C497.704 522.267 462.329 548.518 430.175 555.636Z" fill="#263238"/>
<path d="M430.175 555.636C430.175 555.636 410.021 550.294 393.56 539.176C377.1 528.057 364.243 515.149 341.303 517.82" stroke="white" stroke-width="1.10311" stroke-linecap="round" stroke-linejoin="round"/>
<path d="M389.79 536.556C400.193 533.565 407.823 526.83 416.168 520.376C424.97 513.312 434.423 507.098 444.399 501.82" stroke="white" stroke-width="1.10311" stroke-linecap="round" stroke-linejoin="round"/>
<path d="M386.122 322.12H389.177" stroke="#263238" stroke-width="1.10311" stroke-linecap="round" stroke-linejoin="round"/>
</svg>
