<svg width="532" height="653" viewBox="0 0 532 653" fill="none" xmlns="http://www.w3.org/2000/svg">
<path d="M715.015 163.284C710.479 139.203 704.65 115.384 697.554 91.9296C676.26 24.0435 633.951 -44.6575 561.244 -67.7544C507.594 -84.7996 449.644 -72.9564 404.282 -38.2764C333.188 16.1538 281.394 90.4211 203.554 137.586C138.564 176.948 104.543 240.568 126.409 330.476C148.274 420.384 221.224 472.803 301.057 466.352C367.452 460.994 436.847 466.716 494.242 498.951C545.516 527.736 636.153 502.749 711.114 424.043C754.776 378.196 750.562 319.916 736.326 265.399C727.552 231.829 721.83 197.409 715.015 163.284Z" fill="#92E3A9"/>
<path opacity="0.7" d="M715.015 163.284C710.479 139.203 704.65 115.384 697.554 91.9296C676.26 24.0435 633.951 -44.6575 561.244 -67.7544C507.594 -84.7996 449.644 -72.9564 404.282 -38.2764C333.188 16.1538 281.394 90.4211 203.554 137.586C138.564 176.948 104.543 240.568 126.409 330.476C148.274 420.384 221.224 472.803 301.057 466.352C367.452 460.994 436.847 466.716 494.242 498.951C545.516 527.736 636.153 502.749 711.114 424.043C754.776 378.196 750.562 319.916 736.326 265.399C727.552 231.829 721.83 197.409 715.015 163.284Z" fill="white"/>
<path d="M172.62 4.36265C172.95 4.67477 178.741 8.85371 178.776 8.76701C178.81 8.68031 182.001 -1.04743 181.463 -5.62519C181.013 -9.52669 179.348 -14.2952 175.776 -16.4627C174.952 -16.9894 174.025 -17.3357 173.057 -17.479C172.09 -17.6222 171.102 -17.5591 170.161 -17.2938C169.219 -17.0285 168.344 -16.567 167.594 -15.9396C166.843 -15.3123 166.234 -14.5332 165.805 -13.6536C163.343 -8.31289 168.753 0.807949 172.62 4.36265Z" fill="#92E3A9"/>
<path d="M342.569 -39.2996C342.569 -39.2996 312.883 -8.64244 313.091 29.0027C313.299 66.6478 343.211 97.0449 343.211 97.0449C343.211 97.0449 372.914 66.4051 372.689 28.7426C372.463 -8.91987 342.569 -39.2996 342.569 -39.2996Z" fill="#92E3A9"/>
<path d="M300.242 51.5448C300.633 51.1266 300.992 50.6803 301.317 50.2096C303.467 46.9323 305.323 42.1638 303.936 38.245C303.645 37.3106 303.16 36.4483 302.513 35.7146C301.866 34.981 301.071 34.3925 300.18 33.988C299.289 33.5835 298.322 33.3721 297.344 33.3676C296.366 33.3631 295.397 33.5657 294.503 33.962C290.462 35.8694 288.486 42.3372 288.07 47.6259C286.457 47.2618 285 46.9844 283.752 46.7589C283.232 45.5625 282.694 44.366 282.139 43.1522C281.584 41.9384 281.151 40.6379 280.631 39.3547C279.92 37.482 279.295 35.5053 278.654 33.5285C280.995 32.4881 287.827 29.2802 290.376 26.4711C292.925 23.662 295.578 19.119 294.78 15.0441C294.633 14.078 294.284 13.1538 293.755 12.3321C293.226 11.5104 292.53 10.8098 291.711 10.276C290.892 9.74233 289.97 9.38761 289.005 9.23513C288.04 9.08265 287.053 9.13584 286.11 9.39124C280.457 11.1252 277.145 21.1478 277.041 26.4018C277.041 26.5578 277.041 27.6676 277.232 29.0028C276.677 27.0607 276.088 25.1186 275.585 23.1245C274.128 17.489 272.828 11.6974 271.51 5.90589C271.232 4.70943 270.938 3.49563 270.66 2.29916C272.637 1.41483 280.076 -1.98381 282.798 -4.93161C285.521 -7.87941 288 -12.2838 287.203 -16.3587C287.056 -17.3248 286.706 -18.249 286.178 -19.0706C285.649 -19.8923 284.952 -20.593 284.133 -21.1267C283.315 -21.6604 282.393 -22.0151 281.428 -22.1676C280.462 -22.3201 279.476 -22.2669 278.533 -22.0115C272.897 -20.2775 269.585 -10.255 269.464 -5.00097C269.464 -4.82757 269.568 -3.49239 269.706 -2.00114C268.943 -5.13969 268.146 -8.26089 267.244 -11.3301C265.748 -16.6114 263.894 -21.7849 261.695 -26.8147C262.406 -27.1095 271.215 -30.9243 274.18 -34.2015C276.799 -37.1146 279.382 -41.5537 278.567 -45.6286C278.42 -46.5947 278.071 -47.5189 277.542 -48.3406C277.013 -49.1623 276.317 -49.8629 275.498 -50.3966C274.68 -50.9303 273.757 -51.2851 272.792 -51.4375C271.827 -51.59 270.84 -51.5368 269.897 -51.2814C264.262 -49.5474 260.95 -39.5249 260.828 -34.2709C260.828 -33.9067 261.262 -29.0689 261.47 -27.3349C261.463 -27.3925 261.463 -27.4507 261.47 -27.5083C259.194 -32.3909 256.49 -37.0621 253.39 -41.467C250.632 -45.4144 247.65 -49.2007 244.459 -52.8074C241.529 -56.2754 238.651 -59.0844 236.084 -61.6334C234.68 -63.0033 233.362 -64.2344 232.131 -65.3615H232.252C232.356 -65.3615 229.512 -71.916 229.287 -72.2975C226.651 -76.8406 218.883 -84.0714 213.143 -82.8229C212.188 -82.6123 211.289 -82.202 210.503 -81.6191C209.718 -81.0363 209.065 -80.2939 208.587 -79.4408C208.109 -78.5876 207.816 -77.643 207.729 -76.6689C207.642 -75.6949 207.761 -74.7133 208.08 -73.7888C209.363 -69.8352 213.733 -67.1822 217.426 -65.899C221.12 -64.6159 229.564 -65.2228 231.593 -65.4135C232.842 -64.1997 234.177 -62.8992 235.616 -61.4427C238.13 -58.8417 240.939 -55.8765 243.783 -52.4605C244.546 -51.5415 245.326 -50.5358 246.089 -49.5648C244.459 -50.9346 242.171 -52.7553 241.928 -52.9114C237.506 -55.7205 227.275 -58.5642 222.767 -54.8188C222.021 -54.1766 221.421 -53.383 221.006 -52.4908C220.59 -51.5986 220.369 -50.6283 220.358 -49.6442C220.346 -48.6601 220.544 -47.6849 220.939 -46.7832C221.333 -45.8816 221.915 -45.0742 222.646 -44.4148C225.593 -41.5017 230.709 -41.1549 234.593 -41.7271C238.477 -42.2993 245.864 -46.9291 247.442 -47.8481C249.176 -45.698 250.789 -43.4264 252.401 -40.9121C255.365 -36.523 257.935 -31.881 260.083 -27.0401C260.204 -26.7627 260.291 -26.4506 260.412 -26.1731C259.719 -26.9881 255.592 -31.1497 255.21 -31.3751C251.118 -34.6697 241.338 -38.6059 236.362 -35.3806C235.558 -34.8228 234.882 -34.1012 234.377 -33.2634C233.872 -32.4255 233.55 -31.4904 233.432 -30.5193C233.314 -29.5482 233.403 -28.5631 233.693 -27.6288C233.982 -26.6945 234.466 -25.832 235.113 -25.098C237.732 -21.8728 242.76 -20.9711 246.679 -21.1098C251.205 -21.2659 260.1 -25.757 260.43 -25.9304C262.429 -21.0154 264.109 -15.9763 265.458 -10.8445C266.464 -7.04708 267.348 -3.16293 268.181 0.738564C267.262 -0.301834 263.412 -4.16866 263.1 -4.46343C259.008 -7.7407 249.228 -11.6942 244.251 -8.45163C243.448 -7.89373 242.771 -7.17217 242.266 -6.33434C241.762 -5.4965 241.44 -4.56133 241.322 -3.59025C241.204 -2.61916 241.293 -1.63409 241.582 -0.699776C241.872 0.23455 242.356 1.09702 243.003 1.83099C245.621 5.03889 250.65 5.95791 254.569 5.81918C258.99 5.64578 267.539 1.38015 268.25 1.01601L269.394 6.35674C270.591 12.1656 271.77 17.9919 273.105 23.6967C273.573 25.6735 274.093 27.6156 274.614 29.5577C273.174 28.0491 270.504 25.3614 270.244 25.1533C266.152 21.876 256.372 17.9225 251.395 21.1651C250.592 21.723 249.915 22.4445 249.411 23.2824C248.906 24.1202 248.584 25.0554 248.466 26.0265C248.348 26.9976 248.437 27.9826 248.726 28.9169C249.016 29.8513 249.5 30.7137 250.147 31.4477C252.765 34.6556 257.794 35.5746 261.713 35.4186C265.632 35.2625 272.914 31.8465 274.961 30.8582C275.845 34.0834 276.799 37.2566 277.891 40.3431C278.394 41.6609 278.81 43.0482 279.365 44.2793L280.197 46.2561L279.174 46.1C279.174 46.1 279.087 47.938 279.261 50.9205C274.943 47.8513 268.718 45.1983 264.661 47.0537C263.782 47.4835 263.005 48.0941 262.379 48.8454C261.754 49.5968 261.294 50.4719 261.031 51.4134C260.767 52.3549 260.705 53.3415 260.85 54.3084C260.994 55.2754 261.342 56.2009 261.869 57.0242C262.123 57.4716 262.426 57.8902 262.77 58.2727C263.536 62.8321 265.458 67.1189 268.354 70.7228C268.579 70.9656 271.51 73.688 273.036 75.0405C271.562 74.2255 270.088 73.4452 268.562 72.5782C266.36 71.3644 264.071 69.9945 261.834 68.6767L258.366 66.4918C257.187 65.7809 256.147 64.9486 255.02 64.1683C253.39 63.0065 251.76 61.706 250.147 60.4228C251.517 58.238 255.453 51.7528 256.025 48.0421C256.597 44.3313 256.285 39.06 253.39 36.0948C252.739 35.3568 251.938 34.7657 251.041 34.3608C250.144 33.9559 249.172 33.7466 248.188 33.7466C247.203 33.7466 246.231 33.9559 245.334 34.3608C244.437 34.7657 243.636 35.3568 242.986 36.0948C239.205 40.6032 241.997 50.8338 244.806 55.2729C244.806 55.4289 245.587 56.2959 246.402 57.3363C244.858 56.0358 243.315 54.7353 241.789 53.3481C237.471 49.4466 233.119 45.337 228.888 41.2101L226.183 38.6612C227.362 36.8405 231.68 29.9044 232.287 25.9683C232.894 22.0321 232.547 16.9862 229.651 14.0037C229 13.2656 228.2 12.6746 227.303 12.2697C226.406 11.8648 225.433 11.6554 224.449 11.6554C223.465 11.6554 222.492 11.8648 221.595 12.2697C220.698 12.6746 219.898 13.2656 219.247 14.0037C215.467 18.5121 218.259 28.7427 220.981 33.199C221.085 33.3551 221.917 34.3955 222.854 35.5573C220.478 33.3724 218.085 31.2049 215.64 29.1415C211.48 25.5663 207.083 22.2758 202.479 19.2924C202.913 18.6508 208.149 10.6224 208.808 6.25269C209.398 2.36852 209.068 -2.72942 206.173 -5.71191C205.522 -6.44994 204.721 -7.04103 203.824 -7.44591C202.928 -7.85078 201.955 -8.06017 200.971 -8.06017C199.987 -8.06017 199.014 -7.85078 198.117 -7.44591C197.22 -7.04103 196.42 -6.44994 195.769 -5.71191C191.989 -1.20351 194.78 9.02709 197.503 13.4835C197.693 13.7956 200.711 17.5584 201.82 18.8589L201.664 18.7548C197.076 15.9267 192.241 13.5182 187.22 11.5587C182.744 9.78993 178.17 8.27888 173.521 7.03299C169.221 5.83653 165.216 5.00421 161.661 4.29327C159.736 3.92913 157.968 3.61701 156.32 3.35691C156.32 3.35691 150.407 -0.613953 150.008 -0.804695C145.309 -3.14559 134.836 -4.89693 130.744 -0.683311C130.062 0.0341873 129.541 0.889336 129.217 1.82465C128.894 2.75995 128.773 3.75377 128.865 4.73931C128.957 5.72485 129.259 6.6793 129.751 7.5385C130.242 8.39771 130.912 9.14177 131.715 9.7207C134.957 12.3044 140.073 12.1136 143.853 11.1252C147.633 10.1369 154.257 5.02155 155.991 3.73839C157.725 4.05051 159.459 4.39732 161.54 4.81348C165.008 5.61111 169.048 6.54747 173.296 7.81329C174.441 8.14275 175.637 8.55892 176.764 8.94041C174.649 8.71498 171.735 8.45486 171.458 8.45486C166.256 8.54156 156.112 11.8188 154.413 17.437C154.157 18.3777 154.103 19.3617 154.253 20.3249C154.404 21.288 154.755 22.2086 155.286 23.0267C155.816 23.8448 156.512 24.5419 157.33 25.0727C158.148 25.6034 159.068 25.9559 160.031 26.107C164.106 26.9046 168.545 24.373 171.475 21.772C174.406 19.171 178.065 11.264 178.81 9.634C181.411 10.5183 184.012 11.472 186.752 12.6338C191.669 14.681 196.393 17.1648 200.867 20.0553C201.109 20.2114 201.37 20.4195 201.612 20.5929C200.589 20.2981 194.85 19.1016 194.434 19.067C189.232 18.5814 178.828 20.8009 176.504 26.1243C176.14 27.0335 175.972 28.0095 176.012 28.9882C176.052 29.9668 176.299 30.9259 176.736 31.8023C177.173 32.6787 177.791 33.4525 178.549 34.0728C179.307 34.6932 180.188 35.1459 181.134 35.4012C185.105 36.6324 189.804 34.6209 192.994 32.332C196.67 29.6964 201.664 21.0437 201.786 20.7143C206.162 23.7183 210.343 26.9963 214.305 30.5287C217.236 33.1297 220.114 35.9041 222.975 38.6958C221.623 38.349 216.282 37.2219 215.883 37.1872C210.681 36.7017 200.277 38.9212 197.954 44.262C197.592 45.1702 197.427 46.1445 197.468 47.1212C197.509 48.0978 197.757 49.0546 198.194 49.9289C198.631 50.8032 199.248 51.5753 200.005 52.1944C200.761 52.8135 201.64 53.2658 202.583 53.5215C206.554 54.7527 211.253 52.7412 214.444 50.4523C218.033 47.886 222.802 39.6148 223.201 38.9212C224.501 40.1871 225.802 41.4529 227.085 42.736C231.298 46.9323 235.495 51.1459 239.778 55.1688C241.252 56.5734 242.76 57.8912 244.269 59.2264C242.24 58.7582 238.529 57.9952 238.2 57.9606C232.998 57.475 222.594 59.6946 220.27 65.0353C219.909 65.9435 219.743 66.9179 219.785 67.8945C219.826 68.8711 220.073 69.828 220.511 70.7023C220.948 71.5766 221.565 72.3486 222.321 72.9677C223.078 73.5869 223.956 74.0391 224.9 74.2948C228.853 75.5433 233.57 73.5145 236.743 71.243C239.916 68.9715 244.113 62.0701 245.257 60.1281C247.789 62.3129 250.338 64.4457 252.956 66.4225C254.1 67.2375 255.21 68.1565 256.424 68.8848L259.805 71.139C262.164 72.6129 264.348 73.9654 266.585 75.2659C267.695 75.9422 268.77 76.549 269.88 77.1733C267.886 76.393 264.678 75.2312 264.418 75.1445C259.32 73.8787 248.725 74.4162 245.621 79.4102C245.124 80.2536 244.811 81.1926 244.703 82.1656C244.595 83.1386 244.694 84.1235 244.994 85.0555C245.293 85.9875 245.787 86.8454 246.442 87.573C247.097 88.3005 247.899 88.8811 248.794 89.2766C252.523 91.0973 257.464 89.8141 260.932 88.0455C264.799 86.0861 270.608 78.9073 271.336 78.0229C274.041 79.5662 276.677 81.0228 279.174 82.358C285.833 85.93 291.659 88.7738 296.167 90.8892C310.837 103.582 331.472 104.969 331.472 104.969C331.472 104.969 332.564 80.2425 318.016 63.9775C313.044 58.6149 306.984 54.3761 300.242 51.5448ZM274.059 75.6647C274.51 74.6416 278.03 66.7866 278.272 62.3649L280.7 61.8621C282.19 69.6695 285.291 77.0809 289.804 83.6238C287.133 82.3637 284.243 80.9534 281.134 79.3928C278.897 78.231 276.504 76.9826 274.059 75.6647Z" fill="#92E3A9"/>
<path d="M408.409 46.8284C408.409 46.8284 383.665 47.574 368.527 63.3187C353.389 79.0634 353.58 103.79 353.58 103.79C353.58 103.79 378.307 103.027 393.462 87.2999C408.617 71.5725 408.409 46.8284 408.409 46.8284Z" fill="#92E3A9"/>
<g opacity="0.5">
<path d="M172.62 4.36265C172.95 4.67477 178.741 8.85371 178.776 8.76701C178.81 8.68031 182.001 -1.04743 181.463 -5.62519C181.013 -9.52669 179.348 -14.2952 175.776 -16.4627C174.952 -16.9894 174.025 -17.3357 173.057 -17.479C172.09 -17.6222 171.102 -17.5591 170.161 -17.2938C169.219 -17.0285 168.344 -16.567 167.594 -15.9396C166.843 -15.3123 166.234 -14.5332 165.805 -13.6536C163.343 -8.31289 168.753 0.807949 172.62 4.36265Z" fill="white"/>
<path d="M342.569 -39.2996C342.569 -39.2996 312.883 -8.64244 313.091 29.0027C313.299 66.6478 343.211 97.0449 343.211 97.0449C343.211 97.0449 372.914 66.4051 372.689 28.7426C372.463 -8.91987 342.569 -39.2996 342.569 -39.2996Z" fill="white"/>
<path d="M300.242 51.5448C300.633 51.1266 300.992 50.6803 301.317 50.2096C303.467 46.9323 305.323 42.1638 303.936 38.245C303.645 37.3106 303.16 36.4483 302.513 35.7146C301.866 34.981 301.071 34.3925 300.18 33.988C299.289 33.5835 298.322 33.3721 297.344 33.3676C296.366 33.3631 295.397 33.5657 294.503 33.962C290.462 35.8694 288.486 42.3372 288.07 47.6259C286.457 47.2618 285 46.9844 283.752 46.7589C283.232 45.5625 282.694 44.366 282.139 43.1522C281.584 41.9384 281.151 40.6379 280.631 39.3547C279.92 37.482 279.295 35.5053 278.654 33.5285C280.995 32.4881 287.827 29.2802 290.376 26.4711C292.925 23.662 295.578 19.119 294.78 15.0441C294.633 14.078 294.284 13.1538 293.755 12.3321C293.226 11.5104 292.53 10.8098 291.711 10.276C290.892 9.74233 289.97 9.38761 289.005 9.23513C288.04 9.08265 287.053 9.13584 286.11 9.39124C280.457 11.1252 277.145 21.1478 277.041 26.4018C277.041 26.5578 277.041 27.6676 277.232 29.0028C276.677 27.0607 276.088 25.1186 275.585 23.1245C274.128 17.489 272.828 11.6974 271.51 5.90589C271.232 4.70943 270.938 3.49563 270.66 2.29916C272.637 1.41483 280.076 -1.98381 282.798 -4.93161C285.521 -7.87941 288 -12.2838 287.203 -16.3587C287.056 -17.3248 286.706 -18.249 286.178 -19.0706C285.649 -19.8923 284.952 -20.593 284.133 -21.1267C283.315 -21.6604 282.393 -22.0151 281.428 -22.1676C280.462 -22.3201 279.476 -22.2669 278.533 -22.0115C272.897 -20.2775 269.585 -10.255 269.464 -5.00097C269.464 -4.82757 269.568 -3.49239 269.706 -2.00114C268.943 -5.13969 268.146 -8.26089 267.244 -11.3301C265.748 -16.6114 263.894 -21.7849 261.695 -26.8147C262.406 -27.1095 271.215 -30.9243 274.18 -34.2015C276.799 -37.1146 279.382 -41.5537 278.567 -45.6286C278.42 -46.5947 278.071 -47.5189 277.542 -48.3406C277.013 -49.1623 276.317 -49.8629 275.498 -50.3966C274.68 -50.9303 273.757 -51.2851 272.792 -51.4375C271.827 -51.59 270.84 -51.5368 269.897 -51.2814C264.262 -49.5474 260.95 -39.5249 260.828 -34.2709C260.828 -33.9067 261.262 -29.0689 261.47 -27.3349C261.463 -27.3925 261.463 -27.4507 261.47 -27.5083C259.194 -32.3909 256.49 -37.0621 253.39 -41.467C250.632 -45.4144 247.65 -49.2007 244.459 -52.8074C241.529 -56.2754 238.651 -59.0844 236.084 -61.6334C234.68 -63.0033 233.362 -64.2344 232.131 -65.3615H232.252C232.356 -65.3615 229.512 -71.916 229.287 -72.2975C226.651 -76.8406 218.883 -84.0714 213.143 -82.8229C212.188 -82.6123 211.289 -82.202 210.503 -81.6191C209.718 -81.0363 209.065 -80.2939 208.587 -79.4408C208.109 -78.5876 207.816 -77.643 207.729 -76.6689C207.642 -75.6949 207.761 -74.7133 208.08 -73.7888C209.363 -69.8352 213.733 -67.1822 217.426 -65.899C221.12 -64.6159 229.564 -65.2228 231.593 -65.4135C232.842 -64.1997 234.177 -62.8992 235.616 -61.4427C238.13 -58.8417 240.939 -55.8765 243.783 -52.4605C244.546 -51.5415 245.326 -50.5358 246.089 -49.5648C244.459 -50.9346 242.171 -52.7553 241.928 -52.9114C237.506 -55.7205 227.275 -58.5642 222.767 -54.8188C222.021 -54.1766 221.421 -53.383 221.006 -52.4908C220.59 -51.5986 220.369 -50.6283 220.358 -49.6442C220.346 -48.6601 220.544 -47.6849 220.939 -46.7832C221.333 -45.8816 221.915 -45.0742 222.646 -44.4148C225.593 -41.5017 230.709 -41.1549 234.593 -41.7271C238.477 -42.2993 245.864 -46.9291 247.442 -47.8481C249.176 -45.698 250.789 -43.4264 252.401 -40.9121C255.365 -36.523 257.935 -31.881 260.083 -27.0401C260.204 -26.7627 260.291 -26.4506 260.412 -26.1731C259.719 -26.9881 255.592 -31.1497 255.21 -31.3751C251.118 -34.6697 241.338 -38.6059 236.362 -35.3806C235.558 -34.8228 234.882 -34.1012 234.377 -33.2634C233.872 -32.4255 233.55 -31.4904 233.432 -30.5193C233.314 -29.5482 233.403 -28.5631 233.693 -27.6288C233.982 -26.6945 234.466 -25.832 235.113 -25.098C237.732 -21.8728 242.76 -20.9711 246.679 -21.1098C251.205 -21.2659 260.1 -25.757 260.43 -25.9304C262.429 -21.0154 264.109 -15.9763 265.458 -10.8445C266.464 -7.04708 267.348 -3.16293 268.181 0.738564C267.262 -0.301834 263.412 -4.16866 263.1 -4.46343C259.008 -7.7407 249.228 -11.6942 244.251 -8.45163C243.448 -7.89373 242.771 -7.17217 242.266 -6.33434C241.762 -5.4965 241.44 -4.56133 241.322 -3.59025C241.204 -2.61916 241.293 -1.63409 241.582 -0.699776C241.872 0.23455 242.356 1.09702 243.003 1.83099C245.621 5.03889 250.65 5.95791 254.569 5.81918C258.99 5.64578 267.539 1.38015 268.25 1.01601L269.394 6.35674C270.591 12.1656 271.77 17.9919 273.105 23.6967C273.573 25.6735 274.093 27.6156 274.614 29.5577C273.174 28.0491 270.504 25.3614 270.244 25.1533C266.152 21.876 256.372 17.9225 251.395 21.1651C250.592 21.723 249.915 22.4445 249.411 23.2824C248.906 24.1202 248.584 25.0554 248.466 26.0265C248.348 26.9976 248.437 27.9826 248.726 28.9169C249.016 29.8513 249.5 30.7137 250.147 31.4477C252.765 34.6556 257.794 35.5746 261.713 35.4186C265.632 35.2625 272.914 31.8465 274.961 30.8582C275.845 34.0834 276.799 37.2566 277.891 40.3431C278.394 41.6609 278.81 43.0482 279.365 44.2793L280.197 46.2561L279.174 46.1C279.174 46.1 279.087 47.938 279.261 50.9205C274.943 47.8513 268.718 45.1983 264.661 47.0537C263.782 47.4835 263.005 48.0941 262.379 48.8454C261.754 49.5968 261.294 50.4719 261.031 51.4134C260.767 52.3549 260.705 53.3415 260.85 54.3084C260.994 55.2754 261.342 56.2009 261.869 57.0242C262.123 57.4716 262.426 57.8902 262.77 58.2727C263.536 62.8321 265.458 67.1189 268.354 70.7228C268.579 70.9656 271.51 73.688 273.036 75.0405C271.562 74.2255 270.088 73.4452 268.562 72.5782C266.36 71.3644 264.071 69.9945 261.834 68.6767L258.366 66.4918C257.187 65.7809 256.147 64.9486 255.02 64.1683C253.39 63.0065 251.76 61.706 250.147 60.4228C251.517 58.238 255.453 51.7528 256.025 48.0421C256.597 44.3313 256.285 39.06 253.39 36.0948C252.739 35.3568 251.938 34.7657 251.041 34.3608C250.144 33.9559 249.172 33.7466 248.188 33.7466C247.203 33.7466 246.231 33.9559 245.334 34.3608C244.437 34.7657 243.636 35.3568 242.986 36.0948C239.205 40.6032 241.997 50.8338 244.806 55.2729C244.806 55.4289 245.587 56.2959 246.402 57.3363C244.858 56.0358 243.315 54.7353 241.789 53.3481C237.471 49.4466 233.119 45.337 228.888 41.2101L226.183 38.6612C227.362 36.8405 231.68 29.9044 232.287 25.9683C232.894 22.0321 232.547 16.9862 229.651 14.0037C229 13.2656 228.2 12.6746 227.303 12.2697C226.406 11.8648 225.433 11.6554 224.449 11.6554C223.465 11.6554 222.492 11.8648 221.595 12.2697C220.698 12.6746 219.898 13.2656 219.247 14.0037C215.467 18.5121 218.259 28.7427 220.981 33.199C221.085 33.3551 221.917 34.3955 222.854 35.5573C220.478 33.3724 218.085 31.2049 215.64 29.1415C211.48 25.5663 207.083 22.2758 202.479 19.2924C202.913 18.6508 208.149 10.6224 208.808 6.25269C209.398 2.36852 209.068 -2.72942 206.173 -5.71191C205.522 -6.44994 204.721 -7.04103 203.824 -7.44591C202.928 -7.85078 201.955 -8.06017 200.971 -8.06017C199.987 -8.06017 199.014 -7.85078 198.117 -7.44591C197.22 -7.04103 196.42 -6.44994 195.769 -5.71191C191.989 -1.20351 194.78 9.02709 197.503 13.4835C197.693 13.7956 200.711 17.5584 201.82 18.8589L201.664 18.7548C197.076 15.9267 192.241 13.5182 187.22 11.5587C182.744 9.78993 178.17 8.27888 173.521 7.03299C169.221 5.83653 165.216 5.00421 161.661 4.29327C159.736 3.92913 157.968 3.61701 156.32 3.35691C156.32 3.35691 150.407 -0.613953 150.008 -0.804695C145.309 -3.14559 134.836 -4.89693 130.744 -0.683311C130.062 0.0341873 129.541 0.889336 129.217 1.82465C128.894 2.75995 128.773 3.75377 128.865 4.73931C128.957 5.72485 129.259 6.6793 129.751 7.5385C130.242 8.39771 130.912 9.14177 131.715 9.7207C134.957 12.3044 140.073 12.1136 143.853 11.1252C147.633 10.1369 154.257 5.02155 155.991 3.73839C157.725 4.05051 159.459 4.39732 161.54 4.81348C165.008 5.61111 169.048 6.54747 173.296 7.81329C174.441 8.14275 175.637 8.55892 176.764 8.94041C174.649 8.71498 171.735 8.45486 171.458 8.45486C166.256 8.54156 156.112 11.8188 154.413 17.437C154.157 18.3777 154.103 19.3617 154.253 20.3249C154.404 21.288 154.755 22.2086 155.286 23.0267C155.816 23.8448 156.512 24.5419 157.33 25.0727C158.148 25.6034 159.068 25.9559 160.031 26.107C164.106 26.9046 168.545 24.373 171.475 21.772C174.406 19.171 178.065 11.264 178.81 9.634C181.411 10.5183 184.012 11.472 186.752 12.6338C191.669 14.681 196.393 17.1648 200.867 20.0553C201.109 20.2114 201.37 20.4195 201.612 20.5929C200.589 20.2981 194.85 19.1016 194.434 19.067C189.232 18.5814 178.828 20.8009 176.504 26.1243C176.14 27.0335 175.972 28.0095 176.012 28.9882C176.052 29.9668 176.299 30.9259 176.736 31.8023C177.173 32.6787 177.791 33.4525 178.549 34.0728C179.307 34.6932 180.188 35.1459 181.134 35.4012C185.105 36.6324 189.804 34.6209 192.994 32.332C196.67 29.6964 201.664 21.0437 201.786 20.7143C206.162 23.7183 210.343 26.9963 214.305 30.5287C217.236 33.1297 220.114 35.9041 222.975 38.6958C221.623 38.349 216.282 37.2219 215.883 37.1872C210.681 36.7017 200.277 38.9212 197.954 44.262C197.592 45.1702 197.427 46.1445 197.468 47.1212C197.509 48.0978 197.757 49.0546 198.194 49.9289C198.631 50.8032 199.248 51.5753 200.005 52.1944C200.761 52.8135 201.64 53.2658 202.583 53.5215C206.554 54.7527 211.253 52.7412 214.444 50.4523C218.033 47.886 222.802 39.6148 223.201 38.9212C224.501 40.1871 225.802 41.4529 227.085 42.736C231.298 46.9323 235.495 51.1459 239.778 55.1688C241.252 56.5734 242.76 57.8912 244.269 59.2264C242.24 58.7582 238.529 57.9952 238.2 57.9606C232.998 57.475 222.594 59.6946 220.27 65.0353C219.909 65.9435 219.743 66.9179 219.785 67.8945C219.826 68.8711 220.073 69.828 220.511 70.7023C220.948 71.5766 221.565 72.3486 222.321 72.9677C223.078 73.5869 223.956 74.0391 224.9 74.2948C228.853 75.5433 233.57 73.5145 236.743 71.243C239.916 68.9715 244.113 62.0701 245.257 60.1281C247.789 62.3129 250.338 64.4457 252.956 66.4225C254.1 67.2375 255.21 68.1565 256.424 68.8848L259.805 71.139C262.164 72.6129 264.348 73.9654 266.585 75.2659C267.695 75.9422 268.77 76.549 269.88 77.1733C267.886 76.393 264.678 75.2312 264.418 75.1445C259.32 73.8787 248.725 74.4162 245.621 79.4102C245.124 80.2536 244.811 81.1926 244.703 82.1656C244.595 83.1386 244.694 84.1235 244.994 85.0555C245.293 85.9875 245.787 86.8454 246.442 87.573C247.097 88.3005 247.899 88.8811 248.794 89.2766C252.523 91.0973 257.464 89.8141 260.932 88.0455C264.799 86.0861 270.608 78.9073 271.336 78.0229C274.041 79.5662 276.677 81.0228 279.174 82.358C285.833 85.93 291.659 88.7738 296.167 90.8892C310.837 103.582 331.472 104.969 331.472 104.969C331.472 104.969 332.564 80.2425 318.016 63.9775C313.044 58.6149 306.984 54.3761 300.242 51.5448ZM274.059 75.6647C274.51 74.6416 278.03 66.7866 278.272 62.3649L280.7 61.8621C282.19 69.6695 285.291 77.0809 289.804 83.6238C287.133 82.3637 284.243 80.9534 281.134 79.3928C278.897 78.231 276.504 76.9826 274.059 75.6647Z" fill="white"/>
<path d="M408.409 46.8284C408.409 46.8284 383.665 47.574 368.527 63.3187C353.389 79.0634 353.58 103.79 353.58 103.79C353.58 103.79 378.307 103.027 393.462 87.2999C408.617 71.5725 408.409 46.8284 408.409 46.8284Z" fill="white"/>
</g>
<path d="M343.8 62.7637L368.094 40.9153L367.053 39.7535L343.783 60.6655L343.662 32.0545L343.783 32.1412L364.348 2.09102L363.048 1.20668L343.662 29.5749L343.349 -39.2996H341.806L341.997 7.44908L326.53 -5.9374L325.507 -4.75829L342.014 9.52988L342.153 42.944L318.709 22.2054L317.669 23.3672L342.153 45.0422L342.292 75.4739L324.674 61.6539L323.721 62.8677L342.309 77.468L342.378 97.0449H343.939L343.8 62.7463V62.7637Z" fill="white"/>
<path d="M321.414 71.191L319.871 71.0176L317.912 88.3056L307.473 76.6531H307.508L304.855 55.7063L303.311 55.9144L305.67 74.6417L279.746 45.6492L278.584 46.6896L296.185 66.3531L285.035 66.4918L285.07 68.0524L297.554 67.8964L309.901 81.6817L292.474 81.699V83.2596L311.288 83.2423L322.507 95.7791L310.213 96.5247L310.317 98.068L323.825 97.253L331.298 105.611L332.46 104.57L319.299 89.8662L321.414 71.191Z" fill="white"/>
<path d="M380.128 77.364L400.797 73.1504L400.485 71.6245L382 75.3873L408.964 47.3658L407.837 46.2908L389.543 65.2954L388.572 54.1978L387.029 54.3365L388.104 66.7866L375.272 80.1211L373.955 62.7464L372.394 62.8678L373.833 81.6297L362.163 93.733L360.516 81.543L358.955 81.7511L360.776 95.1722L353.008 103.253L354.135 104.328L367.816 90.109L386.613 90.8199L386.665 89.2766L369.273 88.6004L380.11 77.3294L380.128 77.364Z" fill="white"/>
<path d="M390.687 17.0555C398.799 17.0555 405.374 10.41 405.374 2.21243C405.374 -5.98515 398.799 -12.6306 390.687 -12.6306C382.576 -12.6306 376 -5.98515 376 2.21243C376 10.41 382.576 17.0555 390.687 17.0555Z" fill="#2633899" stroke="#263238" stroke-linecap="round" stroke-linejoin="round"/>
<path d="M431.454 42.8226C431.454 42.8226 438.39 42.5279 440.124 54.8219C441.858 67.116 449.106 99.1776 449.713 103.669C450.32 108.16 447.615 113.57 441.043 115.668C434.471 117.766 430.847 111.472 430.24 108.472C429.633 105.472 423.842 68.954 423.842 68.954L431.454 42.8226Z" fill="#263238" stroke="#263238" stroke-linecap="round" stroke-linejoin="round"/>
<path d="M363.949 72.7167C363.949 72.7167 333.569 85.5657 333.569 90.2301C333.569 94.8946 352.279 140.516 352.279 140.516L432.893 119.483L423.859 68.9886C423.859 68.9886 411.859 54.0242 363.949 72.7167Z" fill="#92E3A3" stroke="#263238" stroke-linecap="round" stroke-linejoin="round"/>
<path d="M391.658 45.1462C391.658 45.1462 382.988 50.539 376.052 54.4231C369.116 58.3073 358.712 63.7174 358.712 74.5202C358.712 85.323 366.515 128.17 366.515 132.661C366.372 134.666 366.471 136.68 366.81 138.661C366.81 137.759 419.558 120.367 419.558 120.367C421.181 113.47 423.184 106.668 425.558 99.9926C428.263 93.4034 425.558 87.6986 428.558 76.9131C431.558 66.1276 437.228 58.9315 434.852 50.9031C432.477 42.8747 431.853 43.1174 423.165 42.8053C414.478 42.4932 400.051 42.4412 391.658 45.1462Z" fill="#263238" stroke="#263238" stroke-linecap="round" stroke-linejoin="round"/>
<path d="M387.705 40.4297C387.705 40.4297 383.804 42.5279 382.295 52.1169C381.317 59.7714 380.819 67.4797 380.804 75.1964C380.804 75.1964 396.982 66.2143 399.392 65.9022C401.802 65.5901 419.177 72.8382 419.177 72.8382C417.767 64.9015 415.761 57.0822 413.177 49.4465C409.588 39.8228 391.294 36.2334 387.705 40.4297Z" fill="white" stroke="#263238" stroke-linecap="round" stroke-linejoin="round"/>
<path d="M384.705 38.0369L385 39.0599C386.162 43.1175 390.514 58.1339 393.098 65.6075C396.097 74.2775 400.589 77.9015 400.589 77.9015L405.08 59.972C405.08 59.972 387.393 42.8227 384.705 38.0369Z" fill="white" stroke="#263238" stroke-linecap="round" stroke-linejoin="round"/>
<path d="M400.554 -0.336688C400.554 -0.336688 385.867 -2.72962 380.769 16.4484C375.671 35.6265 392.162 52.1168 396.947 58.4112C401.733 64.7057 408.669 66.7171 412.553 60.5094C418.553 50.9203 420.356 46.1172 421.223 33.5283C422.09 20.9395 420.616 12.5469 414.929 5.95773C413.09 3.98201 410.866 2.40416 408.394 1.32156C405.921 0.238962 403.253 -0.325401 400.554 -0.336688Z" fill="white" stroke="#263238" stroke-linecap="round" stroke-linejoin="round"/>
<path d="M414.981 5.95773C413.14 3.97989 410.913 2.40079 408.438 1.31812C405.962 0.235449 403.291 -0.32777 400.589 -0.336688C400.589 -0.336688 385.902 -2.72962 380.804 16.4484C379.408 21.8878 379.546 27.6077 381.203 32.9734C381.74 31.6036 382.555 30.5285 383.804 30.5285C387.393 30.5285 387.705 35.6265 388.902 35.3317C390.098 35.0369 394.884 30.8406 394 26.9391C393.115 23.0376 394.294 21.2516 400.589 21.2516C406.883 21.2516 408.375 23.9393 410.473 23.3498C412.571 22.7602 414.079 18.5466 416.177 18.5466C417.115 18.5795 418.036 18.7988 418.888 19.1918C419.739 19.5848 420.504 20.1436 421.137 20.8354C420.674 15.3585 418.524 10.1602 414.981 5.95773Z" fill="#263238" stroke="#263238" stroke-linecap="round" stroke-linejoin="round"/>
<path d="M388.901 37.1353C388.901 37.1353 386.491 31.1356 383.803 30.5287C381.116 29.9218 379.607 31.7425 381.098 36.8231C382.59 41.9037 384.705 44.0192 385.902 44.0192C387.098 44.0192 387.636 42.2852 387.636 42.2852" fill="white"/>
<path d="M388.901 37.1353C388.901 37.1353 386.491 31.1356 383.803 30.5287C381.116 29.9218 379.607 31.7425 381.098 36.8231C382.59 41.9037 384.705 44.0192 385.902 44.0192C387.098 44.0192 387.636 42.2852 387.636 42.2852" stroke="#263238" stroke-linecap="round" stroke-linejoin="round"/>
<path d="M367.019 98.5708C367.019 98.5708 368.51 108.177 375.116 112.443C381.723 116.708 390.722 114.541 390.722 114.541" stroke="#263238" stroke-linecap="round" stroke-linejoin="round"/>
<path d="M400.554 77.9014C400.554 77.9014 404.75 93.7848 403.848 100.669" stroke="#263238" stroke-linecap="round" stroke-linejoin="round"/>
<path d="M311.01 73.8438C311.01 73.8438 314.651 75.3524 317.391 84.768C320.131 94.1837 327.396 111.472 329.217 118.148C331.038 124.823 330.431 133.32 322.541 135.488C314.651 137.655 306.155 116.067 304.941 114.246C303.727 112.425 300.693 95.4321 302.219 86.3286C303.745 77.2251 307.681 72.6474 311.01 73.8438Z" fill="white" stroke="#263238" stroke-linecap="round" stroke-linejoin="round"/>
<path d="M267.799 105.368C267.799 105.368 220.391 151.614 220.391 158.55C220.391 165.486 248.291 222.846 256.094 221.546C263.897 220.245 299.011 182.826 299.011 182.826L267.799 105.368Z" fill="#92E3A9" stroke="#263238" stroke-linecap="round" stroke-linejoin="round"/>
<path d="M269.134 81.144C260.126 89.1134 251.614 97.6259 243.644 106.634C233.015 119.067 233.934 140.013 237.263 154.267C240.592 168.52 246.679 208.888 254.256 210.414C261.834 211.94 267.92 195.848 281.272 184.404C294.624 172.959 305.253 163.162 306.155 155.567C307.057 147.972 305.86 123.714 306.467 121.893C307.911 112.956 308.722 103.928 308.895 94.8773C308.895 86.0859 302.219 76.3755 295.543 74.2427C288.867 72.1098 271.856 79.0459 269.134 81.144Z" fill="white" stroke="#263238" stroke-linecap="round" stroke-linejoin="round"/>
<path d="M330.604 366.595C330.604 366.595 320.79 386.779 306.745 399.628C292.699 412.477 270.66 428.378 270.66 428.378C270.66 428.378 293.896 435.73 298.803 436.337C303.71 436.944 302.462 439.389 296.965 441.851C291.468 444.313 284.723 446.134 269.429 446.134C254.135 446.134 244.355 446.134 243.731 442.458C243.107 438.782 252.921 429.609 260.256 422.274C267.591 414.939 295.734 369.04 298.179 366.595C300.624 364.15 317.755 356.191 330.604 366.595Z" fill="white" stroke="#263238" stroke-linecap="round" stroke-linejoin="round"/>
<path d="M298.803 436.337C294.763 435.834 278.307 430.771 272.619 429.002L268.215 438.782C264.89 439.319 261.487 439.075 258.272 438.07C255.058 437.065 252.122 435.326 249.696 432.99C246.037 436.961 243.401 440.498 243.714 442.458C244.338 446.134 254.118 446.134 269.411 446.134C284.705 446.134 291.433 444.296 296.947 441.851C302.461 439.406 303.693 436.944 298.803 436.337Z" fill="#263238" stroke="#263238" stroke-linecap="round" stroke-linejoin="round"/>
<path d="M506.12 366.595C506.12 366.595 515.917 386.779 529.98 399.628C544.043 412.477 566.082 428.378 566.082 428.378C566.082 428.378 542.829 435.73 537.939 436.337C533.049 436.944 534.263 439.389 539.777 441.851C545.291 444.313 551.915 446.134 567.296 446.134C582.676 446.134 592.387 446.134 592.994 442.458C593.6 438.782 583.821 429.609 576.469 422.274C569.116 414.939 540.991 369.04 538.546 366.595C536.101 364.15 518.969 356.191 506.12 366.595Z" fill="white" stroke="#263238" stroke-linecap="round" stroke-linejoin="round"/>
<path d="M189.283 375.161C189.283 375.161 197.849 391.062 197.243 396.576C196.74 401.067 186.041 435.365 182.139 447.781C181.986 448.271 181.956 448.791 182.052 449.296C182.148 449.8 182.367 450.273 182.689 450.673C183.012 451.072 183.428 451.386 183.9 451.586C184.373 451.787 184.888 451.867 185.399 451.821C186.009 451.766 186.588 451.532 187.066 451.15C187.544 450.768 187.899 450.253 188.087 449.671L205.202 397.183C205.202 397.183 208.253 393.507 218.051 391.686C225.541 390.264 262.857 388.513 279.885 387.767C283.027 387.588 286.116 388.636 288.5 390.69C290.884 392.744 292.377 395.644 292.665 398.778C292.665 398.865 292.665 398.934 292.665 399.021C293.202 406.078 304.803 442.579 307.438 450.659C307.582 451.102 307.879 451.479 308.277 451.721C308.675 451.963 309.146 452.054 309.606 451.977C309.865 451.934 310.112 451.838 310.333 451.697C310.554 451.555 310.744 451.37 310.892 451.153C311.039 450.936 311.141 450.691 311.191 450.433C311.241 450.176 311.239 449.91 311.184 449.654C309.103 440.186 300.173 399.368 296.948 378.837C296.948 378.837 232.096 381.889 217.409 378.213C208.581 376.008 200.131 372.501 192.335 367.809C192.335 367.809 188.677 367.826 189.283 375.161Z" fill="#263238" stroke="#263238" stroke-linecap="round" stroke-linejoin="round"/>
<path d="M183.804 267.497C183.804 267.497 161.765 336.614 165.424 348.856C169.082 361.098 186.838 378.213 193.566 378.213C200.294 378.213 205.808 310.934 205.808 304.813C205.808 298.692 194.208 276.722 190.515 267.497C186.821 258.272 183.804 267.497 183.804 267.497Z" fill="#92E3A9" stroke="#263238" stroke-linecap="round" stroke-linejoin="round"/>
<path d="M304.213 370.878C303.988 377.814 302.913 383.12 300.017 383.12C294.52 383.12 234.558 389.224 220.496 388.617C206.433 388.01 196.029 380.762 196.029 370.358C196.029 359.954 196.636 314.072 207.04 307.934C217.444 301.796 272.498 301.206 285.347 301.206C301.161 301.206 301.837 331.759 302.514 342.111C302.704 345.094 304.56 359.954 304.213 370.878Z" fill="#92E3A9" stroke="#263238" stroke-linecap="round" stroke-linejoin="round"/>
<path d="M288.399 371.485C288.399 371.485 327.553 372.716 330.604 366.595C333.656 360.474 330.604 347.625 322.663 345.18C314.721 342.735 281.671 344.573 281.671 344.573L288.399 371.485Z" fill="white" stroke="#263238" stroke-linecap="round" stroke-linejoin="round"/>
<path d="M193.567 313.985C191.238 322.161 190.208 330.651 190.515 339.146C191.122 352.619 194.798 366.075 213.057 377.086C231.316 388.097 291.364 375.248 291.364 375.248L287.081 295.102C287.081 295.102 247.32 290.212 225.299 294.495C203.277 298.778 194.208 311.541 193.567 313.985Z" fill="#263238" stroke="#263238" stroke-linecap="round" stroke-linejoin="round"/>
<path d="M480.318 32.0025C475.915 36.6397 472.462 42.0947 470.157 48.0593C466.879 57.2495 456.059 84.7854 456.389 90.0221C456.718 95.2588 461.296 101.831 465.891 98.2239C470.486 94.6172 481.618 75.2831 482.277 74.2947C482.936 73.3064 483.595 59.5384 483.595 51.0071C483.595 42.4758 484.167 31.673 480.318 32.0025Z" fill="white" stroke="#263238" stroke-linecap="round" stroke-linejoin="round"/>
<path d="M490.895 61.4457C494.485 60.7521 576.451 78.7857 576.451 88.0279C576.451 97.2701 557.949 148.146 557.949 148.146L479.347 127.338C479.347 127.338 480.925 63.4398 490.895 61.4457Z" fill="#92E3A9" stroke="#263238" stroke-linecap="round" stroke-linejoin="round"/>
<path d="M518.587 21.5119C518.587 21.5119 500.883 19.5352 488.416 25.7776C475.948 32.02 475.965 42.4933 476.624 52.6546C477.283 62.8158 480.665 117.628 481.653 121.564C482.641 125.5 505.149 124.459 518.258 127.078C531.367 129.696 540.557 118.876 542.534 114.61C544.51 110.345 567.451 68.7114 567.451 59.868C567.451 51.0246 557.949 34.2915 544.493 26.4191C536.719 21.7462 527.531 20.0058 518.587 21.5119Z" fill="white" stroke="#263238" stroke-linecap="round" stroke-linejoin="round"/>
<path d="M506.12 55.2727L509.726 63.1451L495.629 112.321L498.906 121.824L508.426 114.61L513.663 64.1335L520.876 56.2611L517.269 47.4004L506.12 55.2727Z" fill="#263238" stroke="#263238" stroke-linecap="round" stroke-linejoin="round"/>
<path d="M507.108 34.9503C505.169 38.642 503.523 42.4802 502.184 46.4294C501.301 50.7427 500.865 55.1356 500.883 59.5384C500.883 59.5384 511.374 54.6138 514.322 54.6138C517.27 54.6138 523.165 68.0697 523.165 68.0697C523.165 68.0697 532.026 54.9433 533.344 45.5277C534.662 36.1121 524.483 29.1414 517.27 29.1414C515.213 29.1219 513.188 29.6496 511.403 30.6704C509.617 31.6911 508.135 33.1682 507.108 34.9503Z" fill="white" stroke="#263238" stroke-linecap="round" stroke-linejoin="round"/>
<path d="M511.044 6.42607C511.044 6.42607 507.767 3.80773 505.842 9.04441C503.918 14.2811 507.16 20.8529 507.16 20.8529L510.437 13.9169" fill="white"/>
<path d="M511.044 6.42607C511.044 6.42607 507.767 3.80773 505.842 9.04441C503.918 14.2811 507.16 20.8529 507.16 20.8529L510.437 13.9169" stroke="#263238" stroke-linecap="round" stroke-linejoin="round"/>
<path d="M511.044 50.3656C510.896 50.8678 510.869 51.398 510.965 51.9127C511.062 52.4274 511.278 52.9119 511.598 53.3265C511.918 53.7411 512.332 54.0739 512.805 54.2977C513.278 54.5215 513.798 54.6299 514.321 54.6139C518.587 54.9434 527.431 45.7705 528.089 43.7938C528.748 41.817 511.044 50.3656 511.044 50.3656Z" fill="white" stroke="#263238" stroke-linecap="round" stroke-linejoin="round"/>
<path d="M526.46 -13.5671C526.46 -13.5671 514.981 -8.36511 512.362 -0.128607C509.744 8.10789 505.426 24.789 505.426 31.0834C505.426 37.3778 507.386 50.1574 511.651 52.0648C515.917 53.9722 530.014 44.8514 533.933 42.233C537.852 39.6147 542.464 29.4535 547.389 23.5405C552.314 17.6276 556.232 6.82474 554.325 -2.01866C552.418 -10.8621 537.921 -21.4395 526.46 -13.5671Z" fill="white" stroke="#263238" stroke-linecap="round" stroke-linejoin="round"/>
<path d="M554.325 -2.08795C552.348 -10.9487 537.921 -21.4394 526.459 -13.567C526.459 -13.567 514.98 -8.36504 512.362 -0.128534C511.114 3.77296 509.501 9.58186 508.148 15.2867C510.385 11.8187 514.096 5.83643 514.321 4.46657C514.651 2.48981 514.651 2.16036 516.94 2.16036C519.229 2.16036 523.494 8.71487 529.407 10.0327C535.32 11.3505 543.175 10.3622 543.175 13.6394C543.175 16.9167 538.58 22.1707 541.528 23.8007C543.834 25.0838 541.771 29.5055 541.979 31.4303C543.612 28.6536 545.438 25.9942 547.441 23.4712C552.348 17.5756 556.284 6.75545 554.325 -2.08795Z" fill="#263238" stroke="#263238" stroke-linecap="round" stroke-linejoin="round"/>
<path d="M511.374 18.2345C511.374 18.2345 522.853 23.8006 528.419 25.7774C533.985 27.7542 539.569 30.0257 537.592 33.6324C535.615 37.2391 529.078 38.8344 525.142 37.2391C521.206 35.6439 522.194 27.4074 519.94 27.0779C517.686 26.7484 516.021 31.0141 511.756 31.0141C507.49 31.0141 502.895 24.4596 503.554 19.8645C504.213 15.2694 511.374 18.2345 511.374 18.2345Z" fill="white" stroke="#263238" stroke-linecap="round" stroke-linejoin="round"/>
<path d="M505.479 17.9052L509.397 9.04443" stroke="#263238" stroke-linecap="round" stroke-linejoin="round"/>
<path d="M444.233 412.286C551.731 412.286 638.875 344.939 638.875 261.862C638.875 178.784 551.731 111.437 444.233 111.437C336.736 111.437 249.592 178.784 249.592 261.862C249.592 344.939 336.736 412.286 444.233 412.286Z" fill="#263238" stroke="#263238" stroke-linecap="round" stroke-linejoin="round"/>
<path d="M444.233 407.778C551.731 407.778 638.875 340.43 638.875 257.353C638.875 174.276 551.731 106.929 444.233 106.929C336.736 106.929 249.592 174.276 249.592 257.353C249.592 340.43 336.736 407.778 444.233 407.778Z" fill="#92E3A9" stroke="#263238" stroke-linecap="round" stroke-linejoin="round"/>
<path d="M540.679 164.983L565.371 192.085L521.622 223.471L496.41 192.883L540.679 164.983Z" fill="white" stroke="#263238" stroke-linecap="round" stroke-linejoin="round"/>
<path d="M407.126 167.324L366.724 188.097L402.513 231.95L444.06 204.258L407.126 167.324Z" fill="white" stroke="#263238" stroke-linecap="round" stroke-linejoin="round"/>
<path d="M468.388 211.246L428.003 232.019L463.775 275.872L505.322 248.18L468.388 211.246Z" fill="white" stroke="#263238" stroke-linecap="round" stroke-linejoin="round"/>
<path d="M463.88 214.437L420.374 227.442L447.493 277.121L493.41 257.509L463.88 214.437Z" fill="white" stroke="#263238" stroke-linecap="round" stroke-linejoin="round"/>
<path d="M411.964 142.684C411.964 142.684 419.819 139.753 419.819 141.713C419.819 143.672 419.819 145.632 416.351 146.62C412.883 147.608 401.143 145.146 404.091 143.672C406.606 142.748 409.299 142.41 411.964 142.684Z" fill="white" stroke="#263238" stroke-linecap="round" stroke-linejoin="round"/>
<path d="M368.509 58.4114C368.509 58.4114 358.331 62.0007 353.233 68.3125C348.135 74.6243 345.742 91.0799 344.563 98.276C343.384 105.472 337.974 132.748 340.974 136.043C343.973 139.337 376.035 150.435 382.329 152.238C388.624 154.041 396.201 156.729 400.328 156.434C403.343 156.002 406.217 154.874 408.721 153.14C408.721 153.14 415.917 156.434 417.703 156.434C419.489 156.434 421.899 153.14 419.801 149.828C417.703 146.516 411.859 141.713 408.565 141.713C405.27 141.713 393.132 143.533 393.132 143.533C393.132 143.533 372.446 133.043 366.446 128.846C362.685 126.175 359.174 123.169 355.955 119.864L368.249 81.4909" fill="#263238"/>
<path d="M368.509 58.4114C368.509 58.4114 358.331 62.0007 353.233 68.3125C348.135 74.6243 345.742 91.0799 344.563 98.276C343.384 105.472 337.974 132.748 340.974 136.043C343.973 139.337 376.035 150.435 382.329 152.238C388.624 154.041 396.201 156.729 400.328 156.434C403.343 156.002 406.217 154.874 408.721 153.14C408.721 153.14 415.917 156.434 417.703 156.434C419.489 156.434 421.899 153.14 419.801 149.828C417.703 146.516 411.859 141.713 408.565 141.713C405.27 141.713 393.132 143.533 393.132 143.533C393.132 143.533 372.446 133.043 366.446 128.846C362.685 126.175 359.174 123.169 355.955 119.864L368.249 81.4909" stroke="#263238" stroke-linecap="round" stroke-linejoin="round"/>
<path d="M408.53 141.713C405.236 141.713 393.098 143.533 393.098 143.533C393.098 143.533 390.809 142.389 387.549 140.69C385.017 142.408 383.079 144.867 382 147.73C381.616 149.109 381.4 150.53 381.358 151.961L382.295 152.238C388.589 153.972 396.167 156.729 400.294 156.434C403.309 156.002 406.182 154.874 408.686 153.14C408.686 153.14 415.882 156.434 417.668 156.434C419.454 156.434 421.865 153.14 419.767 149.828C417.668 146.516 411.825 141.713 408.53 141.713Z" fill="white" stroke="#263238" stroke-linecap="round" stroke-linejoin="round"/>
<path d="M271.249 88.1147C270.33 88.3922 263.36 96.0044 262.753 104.813C262.146 113.622 268.822 128.17 270.036 130.598C271.249 133.025 269.741 137.274 272.775 137.274C275.81 137.274 285.225 123.315 285.225 123.315C285.225 123.315 295.837 123.922 297.051 121.199C298.265 118.477 288.555 103.287 286.439 96.9235C284.324 90.5597 276.417 86.6062 271.249 88.1147Z" fill="white" stroke="#263238" stroke-linecap="round" stroke-linejoin="round"/>
<path d="M270.643 83.5717C270.664 87.7465 270.257 91.9125 269.429 96.0045C268.215 100.253 267.921 102.386 272.464 109.061C277.026 115.062 281.997 120.74 287.341 126.055C287.341 126.055 287.948 119.119 288.26 115.13C288.572 111.142 294.624 108.749 295.838 106.929C297.052 105.108 289.162 103.894 286.127 98.4321C283.093 92.97 283.093 83.5717 278.845 82.6527C274.596 81.7336 272.238 79.3234 270.643 83.5717Z" fill="white" stroke="#263238" stroke-linecap="round" stroke-linejoin="round"/>
<path d="M311.322 65.0526C311.322 65.0526 319.819 62.625 318.258 54.1284C316.697 45.6318 301.265 39.268 284.584 40.7766C267.903 42.2852 260.308 53.2267 258.782 64.1509C257.256 75.0751 268.787 85.6872 270.001 87.5079C271.215 89.3286 269.706 91.1493 273.347 92.3631C275.825 93.0591 278.447 93.0591 280.925 92.3631C281.822 93.654 283.075 94.6572 284.53 95.2511C285.986 95.8451 287.583 96.0044 289.127 95.7097C294.329 94.4959 292.768 84.1786 294.901 82.9648C297.034 81.751 298.542 77.7628 304.906 74.1561C311.27 70.5494 311.322 65.0526 311.322 65.0526Z" fill="#263238" stroke="#263238" stroke-linecap="round" stroke-linejoin="round"/>
<path d="M285.52 90.2475C285.52 90.2475 286.127 85.3923 280.058 84.7854C273.989 84.1785 275.515 89.9874 276.729 92.6751C277.943 95.3628 282.174 97.5303 282.174 97.5303C282.174 97.5303 283.7 104.466 285.833 105.108C287.965 105.749 300.693 111.177 303.173 110.31C305.652 109.443 308.028 98.1719 308.028 98.1719C308.028 98.1719 312.276 96.039 312.276 93.9236C312.276 91.8081 310.386 85.6871 310.386 84.2478C310.386 82.8086 313.733 78.4736 314.339 75.1443C314.946 71.8151 311.305 65.1218 311.305 65.1218C311.305 65.1218 309.779 70.5839 304.924 70.5839C301.635 70.5083 298.37 70.0011 295.213 69.0753C295.213 69.0753 297.641 75.4391 295.82 78.1788C294 80.9186 290.965 80.2943 290.358 81.5081C289.751 82.7219 290.063 88.184 289.751 89.3978C289.439 90.6116 287.341 94.7906 285.52 90.2475Z" fill="white" stroke="#263238" stroke-linecap="round" stroke-linejoin="round"/>
<path d="M314.964 123.315C314.964 123.315 316.472 135.453 319.507 140.308C322.541 145.163 335.286 163.977 335.286 163.977C335.286 163.977 334.385 170.358 335.286 172.179C337.103 176 338.628 179.953 339.847 184.005C339.847 185.219 342.274 186.138 342.569 184.317C342.772 182.91 342.876 181.49 342.881 180.069L348.083 187.958C348.083 187.958 350.823 190.074 351.725 188.253C352.626 186.433 352.037 176.722 352.644 172.786C353.251 168.85 350.216 163.37 347.789 160.943C345.361 158.515 342.326 154.267 341.407 153.365C340.488 152.463 336.552 138.193 334.731 128.482C332.911 118.772 328.056 112.703 324.414 112.096" fill="white"/>
<path d="M314.964 123.315C314.964 123.315 316.472 135.453 319.507 140.308C322.541 145.163 335.286 163.977 335.286 163.977C335.286 163.977 334.385 170.358 335.286 172.179C337.103 176 338.628 179.953 339.847 184.005C339.847 185.219 342.274 186.138 342.569 184.317C342.772 182.91 342.876 181.49 342.881 180.069L348.083 187.958C348.083 187.958 350.823 190.074 351.725 188.253C352.626 186.433 352.037 176.722 352.644 172.786C353.251 168.85 350.216 163.37 347.789 160.943C345.361 158.515 342.326 154.267 341.407 153.365C340.488 152.463 336.552 138.193 334.731 128.482C332.911 118.772 328.056 112.703 324.414 112.096" stroke="#263238" stroke-linecap="round" stroke-linejoin="round"/>
<path d="M351.673 188.288C352.592 186.554 351.985 176.757 352.592 172.821C353.199 168.884 350.164 163.405 347.736 160.977C345.986 159.119 344.337 157.168 342.795 155.134C339.125 156.168 335.832 158.24 333.31 161.099L335.286 164.012C335.286 164.012 334.385 170.393 335.286 172.214C337.103 176.035 338.628 179.988 339.847 184.04C339.847 185.253 342.274 186.172 342.569 184.352C342.772 182.945 342.876 181.525 342.881 180.103L348.083 187.993C348.083 187.993 350.771 190.022 351.673 188.288Z" fill="white" stroke="#263238" stroke-linecap="round" stroke-linejoin="round"/>
<path d="M242.118 111.177C238.157 114.317 235.376 118.705 234.229 123.627C232.113 132.124 239.084 166.717 240.905 176.722C242.725 186.727 251.829 220.072 254.568 222.24C257.308 224.407 289.162 220.419 300.693 218.304C312.224 216.188 337.107 207.379 342.309 205.853C347.511 204.327 350.199 196.455 351.707 194.929C353.216 193.403 356.562 188.253 354.742 186.433C352.921 184.612 347.806 186.433 345.638 186.433C343.471 186.433 339.569 186.138 335.321 186.138C333.217 186.194 331.19 186.936 329.546 188.251C327.903 189.565 326.734 191.381 326.217 193.421C325.636 195.721 324.605 197.884 323.183 199.784C323.183 199.784 291.971 204.033 285.26 204.033C280.894 204.001 276.533 203.7 272.203 203.131C272.203 203.131 268.562 182.184 265.822 169.145C263.082 156.105 260.62 146.082 258.539 142.736" fill="white"/>
<path d="M242.118 111.177C238.157 114.317 235.376 118.705 234.229 123.627C232.113 132.124 239.084 166.717 240.905 176.722C242.725 186.727 251.829 220.072 254.568 222.24C257.308 224.407 289.162 220.419 300.693 218.304C312.224 216.188 337.107 207.379 342.309 205.853C347.511 204.327 350.199 196.455 351.707 194.929C353.216 193.403 356.562 188.253 354.742 186.433C352.921 184.612 347.806 186.433 345.638 186.433C343.471 186.433 339.569 186.138 335.321 186.138C333.217 186.194 331.19 186.936 329.546 188.251C327.903 189.565 326.734 191.381 326.217 193.421C325.636 195.722 324.605 197.884 323.183 199.784C323.183 199.784 291.971 204.033 285.26 204.033C280.894 204.001 276.533 203.7 272.203 203.131C272.203 203.131 268.562 182.184 265.822 169.145C263.082 156.105 260.62 146.082 258.539 142.736" stroke="#263238" stroke-linecap="round" stroke-linejoin="round"/>
<path d="M345.603 186.432C343.488 186.432 339.534 186.138 335.286 186.138C333.182 186.194 331.155 186.936 329.512 188.251C327.868 189.565 326.699 191.381 326.182 193.421C325.601 195.721 324.57 197.884 323.148 199.784L320.946 200.079C321.821 201.892 322.362 203.848 322.541 205.853C322.632 208.046 322.498 210.242 322.142 212.408C331.124 209.564 339.482 206.668 342.274 205.853C347.476 204.345 350.164 196.455 351.672 194.929C353.181 193.403 356.527 188.253 354.707 186.432C352.886 184.612 347.736 186.432 345.603 186.432Z" fill="white" stroke="#263238" stroke-linecap="round" stroke-linejoin="round"/>
<path d="M325.073 243.62C325.073 243.62 332.893 244.261 335.477 244.261C338.06 244.261 356.007 242.319 353.406 239.389C350.805 236.458 331.211 233.84 331.211 233.84L325.073 243.62Z" fill="white" stroke="#263238" stroke-linecap="round" stroke-linejoin="round"/>
<path d="M364.157 226.02L307.161 252.411L329.304 297.357L385.329 269.023L364.157 226.02Z" fill="white" stroke="#263238" stroke-linecap="round" stroke-linejoin="round"/>
<path d="M325.992 241.001C325.992 241.001 332.824 241.001 334.454 241.99C336.084 242.978 342.916 249.151 343.904 247.521C344.893 245.891 340.974 241.99 339.344 240.36C337.714 238.73 336.084 237.429 336.084 237.429" fill="white"/>
<path d="M325.992 241.001C325.992 241.001 332.824 241.001 334.454 241.99C336.084 242.978 342.916 249.151 343.904 247.521C344.893 245.891 340.974 241.99 339.344 240.36C337.714 238.73 336.084 237.429 336.084 237.429" stroke="#263238" stroke-linecap="round" stroke-linejoin="round"/>
<path d="M272.498 218.546L331.194 233.84L322.004 247.296L260.221 239.961C260.221 239.961 245.569 219.777 272.498 218.546Z" fill="white" stroke="#263238" stroke-linecap="round" stroke-linejoin="round"/>
<path d="M230.951 221.112C230.951 221.112 216.646 233.25 211.877 247.989C207.109 262.728 204.074 292.206 204.074 292.206C204.074 292.206 188.902 313.881 188.902 316.049C188.902 318.216 201.473 316.049 201.473 316.049L189.335 336.857C189.335 336.857 189.335 354.197 198.872 363.3C203.275 367.483 208.558 370.627 214.334 372.502C220.11 374.377 226.232 374.936 232.252 374.138C242.656 372.404 261.73 348.995 263.897 347.694C266.065 346.394 258.695 326.453 256.961 319.083C255.227 311.714 258.695 306.512 260.863 305.211C263.03 303.911 275.602 296.108 278.203 290.472C280.804 284.837 280.37 275.3 279.503 267.93C278.636 260.561 267.799 234.984 258.262 227.181C248.725 219.378 240.055 214.176 230.951 221.112Z" fill="white" stroke="#263238" stroke-linecap="round" stroke-linejoin="round"/>
<path d="M239.622 218.945C239.622 218.945 233.119 228.482 233.119 235.418C233.119 242.354 238.755 253.625 243.09 258.827C245.638 261.898 248.389 264.795 251.326 267.497L260.863 265.329L261.297 272.699C261.297 272.699 263.464 268.797 269.533 271.398C275.602 273.999 279.504 272.265 279.504 270.965C281.577 262.565 281.577 253.788 279.504 245.388C276.036 230.216 272.134 227.615 266.499 221.979C260.863 216.344 247.858 214.176 239.622 218.945Z" fill="white" stroke="#263238" stroke-linecap="round" stroke-linejoin="round"/>
<path d="M243.957 221.112C243.957 221.112 239.188 229.349 241.789 235.851C244.39 242.354 252.627 250.157 259.129 255.792C265.632 261.428 273.868 267.497 273.868 267.497C275.339 262.7 275.828 257.656 275.307 252.666C274.786 247.676 273.264 242.842 270.834 238.452C262.597 222.846 247.858 218.078 243.957 221.112Z" fill="white" stroke="#263238" stroke-linecap="round" stroke-linejoin="round"/>
<path d="M281.671 181.664C282.886 184.479 283.9 187.376 284.706 190.334V193.369C284.706 193.369 290.775 196.837 289.908 198.137C289.041 199.438 285.573 205.073 285.573 205.073C286.047 209.84 285.902 214.649 285.139 219.379C283.839 225.014 285.573 227.615 280.804 227.615H268.666C268.666 227.615 267.366 245.822 264.331 245.822C261.297 245.822 247.425 239.32 244.824 235.852C242.223 232.384 241.356 228.916 242.223 226.315C244.92 219.366 247.236 212.275 249.159 205.073C250.893 197.27 263.898 191.201 266.932 189.901C269.967 188.6 281.671 181.664 281.671 181.664Z" fill="white" stroke="#263238" stroke-linecap="round" stroke-linejoin="round"/>
<path d="M233.552 212.443C233.552 212.443 223.148 210.709 217.946 211.576C212.744 212.443 206.242 219.812 206.242 227.182C206.242 234.551 211.877 238.886 220.981 239.753C230.084 240.62 236.153 232.817 236.153 228.482C236.158 223.03 235.28 217.613 233.552 212.443Z" fill="#263238" stroke="#263238" stroke-linecap="round" stroke-linejoin="round"/>
<path d="M259.996 210.275C259.996 210.275 276.469 192.502 281.671 181.664C286.873 170.827 285.139 159.556 276.902 159.556C268.666 159.556 259.562 156.955 243.956 162.59C228.35 168.226 221.848 186.433 222.715 195.97C223.582 205.507 237.887 225.014 245.257 226.315C252.626 227.615 252.626 214.61 252.626 214.61L259.996 210.275Z" fill="#263238" stroke="#263238" stroke-linecap="round" stroke-linejoin="round"/>
<path d="M262.163 213.31C262.163 213.31 258.262 204.64 253.493 207.241C248.725 209.842 253.06 219.379 256.094 221.546C259.129 223.714 263.897 220.246 263.897 220.246" fill="white"/>
<path d="M262.163 213.31C262.163 213.31 258.262 204.64 253.493 207.241C248.725 209.842 253.06 219.379 256.094 221.546C259.129 223.714 263.897 220.246 263.897 220.246" stroke="#263238" stroke-linecap="round" stroke-linejoin="round"/>
<path d="M284.705 193.369C284.705 193.369 282.971 199.004 280.804 199.871" stroke="#263238" stroke-linecap="round" stroke-linejoin="round"/>
<path d="M317.946 271.867C317.946 271.867 314.617 269.647 314.183 272.526C313.75 275.404 317.062 278.508 317.062 278.508C317.062 278.508 312.848 273.861 312.623 276.514C312.397 279.167 315.068 282.063 315.068 282.063C315.068 282.063 311.738 280.502 311.738 281.837C311.738 283.172 316.403 287.819 316.611 290.022C316.819 292.224 321.05 285.374 321.934 280.068C322.122 278.463 321.846 276.838 321.14 275.384C320.433 273.931 319.325 272.71 317.946 271.867Z" fill="white" stroke="#263238" stroke-linecap="round" stroke-linejoin="round"/>
<path d="M311.583 304.778C312.629 300.944 313.354 297.028 313.75 293.073C313.75 289.605 317.652 283.536 319.386 280.068C321.12 276.6 313.75 270.531 317.218 268.797C320.686 267.063 323.287 270.531 326.322 274.433C329.356 278.334 330.223 286.571 327.622 292.206C325.169 297.421 321.955 302.242 318.085 306.512C316.815 307.871 315.355 309.04 313.75 309.98L311.583 304.778Z" fill="white" stroke="#263238" stroke-linecap="round" stroke-linejoin="round"/>
<path d="M314.86 296.455V285.479C314.86 279.982 317.946 271.867 317.946 271.867C318.454 271.798 318.971 271.857 319.45 272.039C319.929 272.22 320.355 272.517 320.691 272.904C321.026 273.291 321.26 273.756 321.371 274.256C321.483 274.756 321.468 275.275 321.328 275.768C321.044 279.335 321.26 282.925 321.969 286.432" fill="white"/>
<path d="M314.86 296.455V285.479C314.86 279.982 317.946 271.867 317.946 271.867C318.454 271.798 318.971 271.857 319.45 272.039C319.929 272.22 320.355 272.517 320.691 272.904C321.026 273.291 321.26 273.756 321.371 274.256C321.483 274.756 321.468 275.275 321.328 275.768C321.044 279.335 321.26 282.925 321.969 286.432" stroke="#263238" stroke-linecap="round" stroke-linejoin="round"/>
<path d="M218.813 290.039C218.813 290.039 212.744 298.709 215.779 308.246C218.813 317.783 262.163 375.439 268.232 375.439C274.301 375.439 318.085 318.65 320.686 315.182C323.287 311.714 312.016 303.044 312.016 303.044L268.232 342.926C268.232 342.926 256.528 296.108 251.759 287.438C246.991 278.768 235.72 277.901 235.72 277.901" fill="white"/>
<path d="M218.813 290.039C218.813 290.039 212.744 298.709 215.779 308.246C218.813 317.783 262.163 375.439 268.232 375.439C274.301 375.439 318.085 318.65 320.686 315.182C323.287 311.714 312.016 303.044 312.016 303.044L268.232 342.926C268.232 342.926 256.528 296.108 251.759 287.438C246.991 278.768 235.72 277.901 235.72 277.901" stroke="#263238" stroke-linecap="round" stroke-linejoin="round"/>
<path d="M428.472 106.374C428.472 106.374 434.454 99.7845 440.748 98.5707C447.043 97.3569 450.337 101.571 448.551 109.061C446.765 116.552 441.06 118.356 437.748 118.061C434.436 117.766 429.078 116.327 427.57 112.373C427.086 111.402 426.914 110.305 427.075 109.231C427.236 108.158 427.724 107.16 428.472 106.374Z" fill="#263238" stroke="#263238" stroke-linecap="round" stroke-linejoin="round"/>
<path d="M432.061 104.57C432.061 104.57 419.177 106.304 416.177 108.472C413.178 110.639 406.276 122.257 406.276 123.748C406.276 125.24 410.473 126.748 412.571 126.748C414.669 126.748 420.079 119.552 420.079 119.552L417.374 127.06C417.374 127.06 420.079 126.748 420.374 125.552C420.669 124.355 424.865 116.257 424.865 116.257C424.865 116.257 432.668 116.57 434.766 112.963C436.864 109.356 438.355 106.963 432.061 104.57Z" fill="white" stroke="#263238" stroke-linecap="round" stroke-linejoin="round"/>
<path d="M457.932 84.7854C457.932 84.7854 454.325 96.9234 454.325 104.449C454.325 111.975 459.51 136.268 459.51 136.268C458.792 140.379 456.997 144.226 454.308 147.417C450.042 152.013 451.36 158.238 453.319 160.197C455.279 162.156 459.232 165.781 460.533 163.474C461.833 161.168 460.862 156.92 462.18 155.29C463.498 153.66 468.405 151.024 469.116 146.1C469.827 141.175 468.787 126.107 468.787 117.905C468.787 109.703 473.052 97.5823 468.457 89.0684" fill="white"/>
<path d="M457.932 84.7854C457.932 84.7854 454.325 96.9234 454.325 104.449C454.325 111.975 459.51 136.268 459.51 136.268C458.792 140.379 456.997 144.226 454.308 147.417C450.042 152.013 451.36 158.238 453.319 160.197C455.279 162.156 459.232 165.781 460.533 163.474C461.833 161.168 460.862 156.92 462.18 155.29C463.498 153.66 468.405 151.024 469.116 146.1C469.827 141.175 468.787 126.107 468.787 117.905C468.787 109.703 473.052 97.5823 468.457 89.0684" stroke="#263238" stroke-linecap="round" stroke-linejoin="round"/>
<path d="M469.133 132.384C463.81 131.326 460.88 133.129 459.319 135.072C459.475 135.817 459.579 136.251 459.579 136.251C458.861 140.362 457.066 144.209 454.377 147.4C450.111 151.995 451.429 158.22 453.389 160.18C455.348 162.139 459.302 165.763 460.602 163.457C461.903 161.151 460.932 156.903 462.249 155.273C463.567 153.643 468.474 151.007 469.185 146.082C469.442 141.519 469.425 136.945 469.133 132.384Z" fill="white" stroke="#263238" stroke-linecap="round" stroke-linejoin="round"/>
<path d="M478.254 131.985L446.782 167.723L478.584 190.351L509.067 151.666L478.254 131.985Z" fill="white" stroke="#263238" stroke-linecap="round" stroke-linejoin="round"/>
<path d="M464.486 146.672C464.486 146.672 464.816 157.822 464.816 159.469C464.816 161.116 468.422 163.076 468.752 159.139C468.805 156.941 469.025 154.75 469.411 152.585C469.74 151.597 471.7 145.371 469.081 140.776" fill="white"/>
<path d="M464.486 146.672C464.486 146.672 464.816 157.822 464.816 159.469C464.816 161.116 468.422 163.076 468.752 159.139C468.805 156.941 469.025 154.75 469.411 152.585C469.74 151.597 471.7 145.371 469.081 140.776" stroke="#263238" stroke-linecap="round" stroke-linejoin="round"/>
<path d="M553.007 59.8679C553.007 59.8679 544.164 69.6997 539.898 78.9419C535.632 88.1841 532.355 111.715 532.355 111.715C532.355 111.715 515.31 139.58 513.004 141.886C510.698 144.192 512.033 143.846 506.449 146.464C500.866 149.082 493.67 150.4 492.681 152.047C491.693 153.695 488.086 161.55 487.115 162.538C486.144 163.526 488.416 165.486 489.733 164.168C491.051 162.85 495.629 157.613 495.629 157.613L490.063 170.723C490.073 170.963 490.133 171.199 490.239 171.415C490.345 171.631 490.495 171.823 490.68 171.978C490.864 172.133 491.078 172.248 491.31 172.315C491.541 172.383 491.784 172.401 492.022 172.37C494.427 171.922 496.76 171.152 498.958 170.081C498.958 170.081 504.542 168.763 506.501 166.145C508.461 163.526 515.691 149.412 515.691 149.412C515.691 149.412 534.765 137.274 541.58 129.089C546.915 122.622 551.129 115.308 554.047 107.449C555.019 104.172 567.157 67.7923 566.827 61.8794C566.498 55.9664 563.55 54.9434 563.55 54.9434" fill="white"/>
<path d="M553.007 59.8679C553.007 59.8679 544.164 69.6997 539.898 78.9419C535.632 88.1841 532.355 111.715 532.355 111.715C532.355 111.715 515.31 139.58 513.004 141.886C510.698 144.192 512.033 143.846 506.449 146.464C500.866 149.082 493.67 150.4 492.681 152.047C491.693 153.695 488.086 161.55 487.115 162.538C486.144 163.526 488.416 165.486 489.733 164.168C491.051 162.85 495.629 157.613 495.629 157.613L490.063 170.723C490.073 170.963 490.133 171.199 490.239 171.415C490.345 171.631 490.495 171.823 490.68 171.978C490.864 172.133 491.078 172.248 491.31 172.315C491.541 172.383 491.784 172.401 492.022 172.37C494.427 171.922 496.76 171.152 498.958 170.081C498.958 170.081 504.542 168.763 506.501 166.145C508.461 163.526 515.691 149.412 515.691 149.412C515.691 149.412 534.765 137.274 541.58 129.089C546.915 122.622 551.129 115.308 554.047 107.449C555.019 104.172 567.157 67.7923 566.827 61.8794C566.498 55.9664 563.55 54.9434 563.55 54.9434" stroke="#263238" stroke-linecap="round" stroke-linejoin="round"/>
<path d="M512.033 142.875C510.958 144.106 510.992 144.279 506.449 146.343C500.883 148.978 493.67 150.279 492.681 151.926C491.693 153.573 488.086 161.428 487.115 162.417C486.144 163.405 488.416 165.365 489.733 164.047C491.051 162.729 495.629 157.492 495.629 157.492L490.063 170.601C490.073 170.842 490.133 171.078 490.239 171.294C490.345 171.51 490.495 171.702 490.68 171.857C490.864 172.012 491.078 172.127 491.31 172.194C491.541 172.261 491.784 172.28 492.022 172.248C494.427 171.801 496.76 171.031 498.958 169.96C498.958 169.96 504.542 168.642 506.501 166.023C508.461 163.405 515.691 149.29 515.691 149.29C515.691 149.29 516.871 148.545 518.778 147.279C517.031 145.158 514.677 143.621 512.033 142.875Z" fill="white" stroke="#263238" stroke-linecap="round" stroke-linejoin="round"/>
<path d="M541.216 149.967C537.222 150.811 533.28 151.882 529.407 153.174C526.182 154.527 518.674 164.185 520.547 164.723C522.419 165.26 527.483 159.087 527.483 159.087C525.701 161.612 524.173 164.307 522.922 167.133C522.385 169.283 521.847 174.069 523.997 173.306C526.147 172.543 530.43 166.596 530.43 166.596C530.43 166.596 535.789 163.37 540.089 163.37C544.389 163.37 547.337 155.325 547.337 155.325C547.337 155.325 550.805 151.857 549.487 148.077C548.169 144.296 541.216 149.967 541.216 149.967Z" fill="white" stroke="#263238" stroke-linecap="round" stroke-linejoin="round"/>
<path d="M525.818 226.748L509.831 293.628L542.534 308.523L554.897 245.649L525.818 226.748Z" fill="white" stroke="#263238" stroke-linecap="round" stroke-linejoin="round"/>
<path d="M526.928 233.667L513.646 289.241L540.817 301.622L551.1 249.359L526.928 233.667Z" fill="#263238" stroke="#263238" stroke-linecap="round" stroke-linejoin="round"/>
<path d="M649.123 286.744C649.123 286.744 645.048 287.126 638.112 292.761C631.176 298.397 603.606 346.515 603.606 346.515C603.606 346.515 578.584 330.909 572.255 326.574C565.926 322.239 560.862 314.228 557.377 309.477C553.892 304.726 553.25 304.084 548.499 303.772C543.748 303.46 540.28 300.304 539.638 302.506C538.997 304.709 540.904 305.68 542.17 306.304C543.277 306.729 544.452 306.947 545.638 306.945C542.65 307.396 539.602 306.716 537.089 305.038C532.338 302.194 531.072 301.57 531.072 304.726C531.072 307.882 534.54 312.962 537.089 316.118C539.638 319.274 554.187 320.557 554.187 320.557C559.467 330.751 565.392 340.597 571.925 350.035C581.41 363.335 601.681 377.589 607.386 375.681C613.09 373.774 643.158 336.111 651.395 325.655C659.631 315.199 670.469 302.853 667.85 295.9" fill="white"/>
<path d="M649.123 286.744C649.123 286.744 645.048 287.126 638.112 292.761C631.176 298.397 603.606 346.515 603.606 346.515C603.606 346.515 578.584 330.909 572.255 326.574C565.926 322.239 560.862 314.228 557.377 309.477C553.892 304.726 553.25 304.084 548.499 303.772C543.748 303.46 540.28 300.304 539.638 302.506C538.997 304.709 540.904 305.68 542.17 306.304C543.277 306.729 544.452 306.947 545.638 306.945C542.65 307.396 539.602 306.716 537.089 305.038C532.338 302.194 531.072 301.57 531.072 304.726C531.072 307.882 534.54 312.962 537.089 316.118C539.638 319.274 554.187 320.557 554.187 320.557C559.467 330.751 565.392 340.596 571.925 350.035C581.41 363.335 601.681 377.589 607.386 375.681C613.09 373.774 643.158 336.111 651.395 325.655C659.631 315.199 670.469 302.853 667.85 295.9" stroke="#263238" stroke-linecap="round" stroke-linejoin="round"/>
<path d="M563.654 318.182C561.175 315.078 559.042 311.905 557.308 309.512C553.84 304.761 553.181 304.119 548.43 303.807C543.678 303.495 540.21 300.339 539.569 302.541C538.927 304.743 540.835 305.714 542.101 306.338C543.207 306.764 544.383 306.981 545.569 306.98C542.581 307.43 539.533 306.75 537.02 305.073C532.269 302.229 531.003 301.605 531.003 304.761C531.003 307.916 534.471 312.997 537.02 316.153C539.569 319.309 554.117 320.592 554.117 320.592C554.117 320.592 554.759 321.84 555.851 323.869C557.91 321.323 560.6 319.362 563.654 318.182Z" fill="white" stroke="#263238" stroke-linecap="round" stroke-linejoin="round"/>
</svg>
