<svg width="79" height="72" viewBox="0 0 79 72" fill="none" xmlns="http://www.w3.org/2000/svg">
<path d="M66.1919 38.592V22.0504H30.8531C28.6301 22.0504 26.8279 20.2483 26.8279 18.0252C26.8279 15.8021 25.0258 14 22.8027 14H1V70.1841H9L18 38.592H66.1919Z" fill="#C4F5D2" stroke="black" stroke-width="1" stroke-linejoin="round"/>
<path d="M35.4591 1.77341L34.5119 1.45287L34.1913 2.40011L20.1832 43.796L19.8627 44.7432L20.8099 45.0638L39.2152 51.292L61.541 58.8469L62.4883 59.1675L62.8088 58.2202L69.6322 38.0561L76.8169 16.8244L77.1375 15.8771L76.1902 15.5566L35.4591 1.77341Z" fill="#FEDB95" stroke="black" stroke-width="1"/>
<rect x="38.7111" y="14.0017" width="29" height="3" transform="rotate(18.6955 38.7111 14.0017)" fill="white"/>
<rect x="36.4673" y="20.6324" width="29" height="3" transform="rotate(18.6955 36.4673 20.6324)" fill="white"/>
<path d="M12 33L1 70.1846H66.1919L77.1919 33H12Z" fill="#92E3A9" stroke="black" stroke-width="1
" stroke-linejoin="round"/>
<circle cx="39" cy="52" r="10" fill="white"/>
<path d="M39 46.7917V51.7396" stroke="#92E3A9" stroke-width="2" stroke-linecap="round" stroke-linejoin="round"/>
<path d="M42.125 47.1953C43.1602 47.869 43.9499 48.8591 44.3765 50.0181C44.8032 51.1771 44.8438 52.443 44.4925 53.627C44.1411 54.811 43.4166 55.8498 42.4268 56.5885C41.4371 57.3272 40.2351 57.7263 39 57.7263C37.765 57.7263 36.563 57.3272 35.5733 56.5885C34.5835 55.8498 33.8589 54.811 33.5076 53.627C33.1562 52.443 33.1969 51.1771 33.6235 50.0181C34.0502 48.8591 34.8399 47.869 35.875 47.1953" stroke="#92E3A9" stroke-width="2" stroke-linecap="round" stroke-linejoin="round"/>
</svg>
